
<svg version="1.1" id="Layer_1" xmlns="http://www.w3.org/2000/svg" xmlns:xlink="http://www.w3.org/1999/xlink" x="0px" y="0px"
	 viewBox="0 0 125 100" style="enable-background:new 0 0 125 100;" xml:space="preserve">
<style type="text/css">
	.st0{fill:#DDDDDD;}
	.st1{fill:#FFFFFF;}
	.st2{fill:#8E8E8E;}
	.st3{fill:none;stroke:#AFAFAF;stroke-linecap:round;stroke-miterlimit:10;}
	.st4{fill:none;stroke:#7E7E7E;stroke-linecap:round;stroke-miterlimit:10;}
	.st5{fill:#F4D3BD;}
	.st6{font-family:'CooperBlack';}
	.st7{font-size:12.6713px;}
	.st8{fill:#8E8E8E;stroke:#8E8E8E;stroke-miterlimit:10;}
</style>
<g id="Layer_16">
	<g>
		<path class="st0" d="M0,43.4c-0.3-28,32.8-49.9,69.8-37c24.4,8.5,29.1,42.2,25,65.1C91.1,92.3,53.6,105,28.2,98.1
			C6.9,92.3,0.3,72.3,0,43.4z"/>
		<g>
			<path class="st1" d="M21.5,77.5c-5.5,0-10-4.5-10-10v-34c0-5.5,4.5-10,10-10h0.1l20.7,1.2c2.2,0,4.2,0.8,5.9,2
				c1.6-1.2,3.7-2,5.9-2l20.7-1.2H75c5.5,0,10,4.5,10,10v34c0,5.5-4.5,10-10,10L21.5,77.5L21.5,77.5z"/>
			<path class="st1" d="M75,27.6l-20.7,1.2c-3.3,0-6,2.7-6,6l0,0c0-3.3-2.7-6-6-6l-20.7-1.2c-3.3,0-6,2.7-6,6v34c0,3.3,2.7,6,6,6
				h41.9h1.2H75c3.3,0,6-2.7,6-6v-34C81,30.3,78.3,27.6,75,27.6z"/>
			<path class="st2" d="M40.3,53.5H22.9c-1.5,0-2.6-1.2-2.6-2.6V35.4c0-1.5,1.2-2.6,2.6-2.6l17.4,0.8c1.5,0,2.6,1.2,2.6,2.6v14.8
				C43,52.4,41.8,53.5,40.3,53.5z"/>
			<path class="st2" d="M55.5,39.3h17.4c1.4,0,2.6-1.2,2.6-2.6v-1.3c0-1.5-1.2-2.6-2.6-2.6l-17.4,0.8c-1.5,0-2.6,1.2-2.6,2.6v0.5
				C52.9,38.1,54.1,39.3,55.5,39.3z"/>
			<line class="st3" x1="54.7" y1="58.7" x2="68.4" y2="58.7"/>
			<line class="st3" x1="54.7" y1="47.4" x2="68.4" y2="47.5"/>
			<line class="st3" x1="54.7" y1="56.1" x2="72.6" y2="56.1"/>
			<line class="st3" x1="54.7" y1="53.5" x2="75.4" y2="53.5"/>
			<line class="st3" x1="54.7" y1="50.9" x2="75.4" y2="50.9"/>
			<line class="st3" x1="54.7" y1="44.4" x2="75.4" y2="44.5"/>
			<line class="st3" x1="54.7" y1="41.8" x2="75.4" y2="41.9"/>
			<line class="st3" x1="20.3" y1="63" x2="25.9" y2="63"/>
			<line class="st3" x1="20.3" y1="60.4" x2="30.6" y2="60.4"/>
			<line class="st3" x1="20.3" y1="57.8" x2="30.6" y2="57.8"/>
			<path class="st2" d="M69.2,71.1C66,70.8,63,73.3,63,73.3h13.2c2,0,3.7-1.6,4.4-3.5c0,0,0.6-22.4,0.3-22.4
				c-0.4,6.3-2.5,7.3-4.3,18.3C76.1,69.3,73.5,71.6,69.2,71.1z"/>
			<g>
				<path class="st4" d="M23,73.5h-1.5c-3.3,0-6-2.7-6-6v-34c0-3.3,2.7-6,6-6l20.7,1.2c3.3,0,6,2.7,6,6v10.6"/>
				<path class="st4" d="M63.4,73.5H75c3.3,0,6-2.7,6-6v-34c0-3.3-2.7-6-6-6l-20.7,1.2c-3.3,0-6,2.7-6,6"/>
			</g>
			<path class="st5" d="M48.6,69.8"/>
		</g>
		<path class="st1" d="M5.9,88.8c-2.5,0-4.5-2-4.5-4.5s2-4.5,4.5-4.5h84.9c2.5,0,4.5,2,4.5,4.5s-2,4.5-4.5,4.5H5.9z"/>
		<path class="st1" d="M30.5,87.3c-3.9,0-7-3.2-7-7v-8.7c0-3.9,3.1-7,7-7h0.6V54.4c0-3.6,2.9-6.6,6.6-6.6h9.6c3.6,0,6.6,3,6.6,6.6
			v10.1h2.6c3.6,0,6.6,2.9,6.6,6.6v9.6c0,3.6-3,6.6-6.6,6.6L30.5,87.3L30.5,87.3z"/>
		<path class="st5" d="M27.7,82.2c0.5,1.4,1.8,2.3,3.3,2.3h8.6c1.5,0,2.8-1,3.3-2.3H27.7z"/>
		<path class="st2" d="M42.5,82.2c0.5,1.4-3.4,2.3-1.8,2.3h15.7c1.5,0,2.8-1,3.3-2.3H42.5z"/>
		<path class="st4" d="M45.2,67.5h11.2c2,0,3.6,1.6,3.6,3.6v9.6c0,2-1.6,3.6-3.6,3.6H45.2"/>
		<path class="st4" d="M34.1,65.4v-11c0-2,1.6-3.6,3.6-3.6h9.6c2,0,3.6,1.6,3.6,3.6v10.8"/>
		<g>
			<text transform="matrix(1 0 0 1 38.3582 63.1463)" class="st2 st6 st7">B</text>
		</g>
		<g>
			<text transform="matrix(1 0 0 1 46.6864 80.1043)" class="st2 st6 st7">C</text>
		</g>
		<path class="st8" d="M37.9,84.3h-6c-3,0-5.4-2.4-5.4-5.4v-6c0-3,2.4-5.4,5.4-5.4h6c3,0,5.4,2.4,5.4,5.4v6
			C43.3,81.9,40.9,84.3,37.9,84.3z"/>
		<line class="st4" x1="63.2" y1="84.3" x2="85.4" y2="84.3"/>
		<line class="st4" x1="9" y1="84.3" x2="24.4" y2="84.3"/>
		<line class="st4" x1="38.2" y1="84.3" x2="56.2" y2="84.3"/>
		<g>
			<text transform="matrix(1 0 0 1 29.8641 80.1033)" class="st1 st6 st7">A</text>
		</g>
	</g>
</g>
</svg>
