
<svg version="1.1" id="Layer_1" xmlns="http://www.w3.org/2000/svg" xmlns:xlink="http://www.w3.org/1999/xlink" x="0px" y="0px"
	 viewBox="0 0 125 100" style="enable-background:new 0 0 125 100;" xml:space="preserve">
<style type="text/css">
	.st0{fill:#F4E8DF;}
	.st1{fill:#FFFFFF;}
	.st2{fill:#F59375;}
	.st3{fill:#F4D3BD;}
	.st4{fill:#EF4D33;}
</style>
<g id="Layer_6">
	<g>
		<path class="st0" d="M0,43.9c-0.3-28,37-50.9,74-38c24.4,8.5,25.7,42.7,21.5,65.6C91.8,92.3,54.4,105,29,98.1
			C7.6,92.3,0.3,72.9,0,43.9z"/>
		<g>
			<path class="st1" d="M22.3,77.5c-5.5,0-10-4.5-10-10v-34c0-5.5,4.5-10,10-10h0.1l20.8,1.2c2.2,0,4.2,0.8,5.9,2
				c1.6-1.2,3.7-2,5.9-2l20.8-1.2h0.1c5.5,0,10,4.5,10,10v34c0,5.5-4.5,10-10,10L22.3,77.5L22.3,77.5z"/>
			<path class="st1" d="M75.7,27.6L55,28.8c-3.3,0-6,2.7-6,6l0,0c0-3.3-2.7-6-6-6l-20.7-1.2c-3.3,0-6,2.7-6,6v34c0,3.3,2.7,6,6,6
				h41.9h1.2h10.4c3.3,0,6-2.7,6-6v-34C81.7,30.3,79,27.6,75.7,27.6z"/>
			<path class="st2" d="M41,53.5H23.6c-1.5,0-2.6-1.2-2.6-2.6V35.4c0-1.5,1.2-2.6,2.6-2.6l17.4,0.8c1.5,0,2.6,1.2,2.6,2.6v14.8
				C43.7,52.4,42.5,53.5,41,53.5z"/>
			<path class="st3" d="M56.3,39.3h17.4c1.4,0,2.6-1.2,2.6-2.6v-1.3c0-1.5-1.2-2.6-2.6-2.6l-17.4,0.8c-1.5,0-2.6,1.2-2.6,2.6v0.5
				C53.7,38.1,54.8,39.3,56.3,39.3z"/>
			<path class="st2" d="M69.2,59.2L69.2,59.2l-13.7,0c-0.3,0-0.5-0.2-0.5-0.5s0.2-0.5,0.5-0.5l0,0l13.7,0c0.3,0,0.5,0.2,0.5,0.5
				C69.7,59,69.4,59.2,69.2,59.2z"/>
			<path class="st2" d="M69.2,48L69.2,48l-13.7,0c-0.3,0-0.5-0.2-0.5-0.5s0.2-0.5,0.5-0.5l0,0l13.7,0c0.3,0,0.5,0.2,0.5,0.5
				S69.4,48,69.2,48z"/>
			<path class="st2" d="M73.3,56.6L73.3,56.6l-17.9,0c-0.3,0-0.5-0.2-0.5-0.5s0.2-0.5,0.5-0.5l0,0l17.9,0c0.3,0,0.5,0.2,0.5,0.5
				C73.8,56.4,73.6,56.6,73.3,56.6z"/>
			<path class="st2" d="M76.2,54L76.2,54l-20.7,0c-0.3,0-0.5-0.2-0.5-0.5s0.2-0.5,0.5-0.5l0,0l20.7,0c0.3,0,0.5,0.2,0.5,0.5
				C76.7,53.8,76.4,54,76.2,54z"/>
			<path class="st2" d="M76.2,51.4L76.2,51.4l-20.7,0c-0.3,0-0.5-0.2-0.5-0.5s0.2-0.5,0.5-0.5l0,0l20.7,0c0.3,0,0.5,0.2,0.5,0.5
				C76.7,51.2,76.4,51.4,76.2,51.4z"/>
			<path class="st2" d="M76.2,45L76.2,45l-20.7,0c-0.3,0-0.5-0.2-0.5-0.5s0.2-0.5,0.5-0.5l0,0l20.7,0c0.3,0,0.5,0.2,0.5,0.5
				S76.4,45,76.2,45z"/>
			<path class="st2" d="M76.2,42.4L76.2,42.4l-20.7,0c-0.3,0-0.5-0.2-0.5-0.5s0.2-0.5,0.5-0.5l0,0l20.7,0c0.3,0,0.5,0.2,0.5,0.5
				S76.4,42.4,76.2,42.4z"/>
			<path class="st2" d="M26.6,63.5L26.6,63.5l-5.6,0c-0.3,0-0.5-0.2-0.5-0.5s0.2-0.5,0.5-0.5l0,0l5.6,0c0.3,0,0.5,0.2,0.5,0.5
				C27.1,63.3,26.9,63.5,26.6,63.5z"/>
			<path class="st2" d="M31.3,60.9L31.3,60.9l-10.3,0c-0.3,0-0.5-0.2-0.5-0.5s0.2-0.5,0.5-0.5l0,0l10.3,0c0.3,0,0.5,0.2,0.5,0.5
				C31.8,60.7,31.6,60.9,31.3,60.9z"/>
			<path class="st2" d="M31.3,58.3L31.3,58.3l-10.3,0c-0.3,0-0.5-0.2-0.5-0.5s0.2-0.5,0.5-0.5l0,0l10.3,0c0.3,0,0.5,0.2,0.5,0.5
				S31.6,58.3,31.3,58.3z"/>
			<path class="st3" d="M69.9,71.1c-3.2-0.3-6.1,2.2-6.1,2.2H77c2,0,3.7-1.6,4.4-3.5c0,0,0.6-22.4,0.3-22.4
				c-0.4,6.3-2.5,7.3-4.3,18.3C76.8,69.3,74.2,71.6,69.9,71.1z"/>
			<g>
				<path class="st4" d="M23.7,74h-1.5c-3.6,0-6.5-2.9-6.5-6.5v-34c0-3.6,2.9-6.5,6.5-6.5L43,28.3l0,0c3.5,0,6.5,2.9,6.5,6.5v10.6
					c0,0.3-0.2,0.5-0.5,0.5s-0.5-0.2-0.5-0.5V34.8c0-3-2.5-5.5-5.5-5.5l-20.8-1.2c-3,0-5.5,2.5-5.5,5.5v34c0,3,2.5,5.5,5.5,5.5h1.5
					c0.3,0,0.5,0.2,0.5,0.5S24,74,23.7,74z"/>
				<path class="st4" d="M75.7,74H64.2c-0.3,0-0.5-0.2-0.5-0.5s0.2-0.5,0.5-0.5h11.6c3,0,5.5-2.5,5.5-5.5v-34c0-3-2.5-5.5-5.5-5.5
					L55,29.3c-3.1,0-5.5,2.5-5.5,5.5c0,0.3-0.2,0.5-0.5,0.5s-0.5-0.2-0.5-0.5c0-3.6,2.9-6.5,6.5-6.5l20.7-1.2l0,0
					c3.6,0,6.5,2.9,6.5,6.5v34C82.2,71.1,79.3,74,75.7,74z"/>
			</g>
			<path class="st3" d="M49.4,69.8"/>
		</g>
		<path class="st1" d="M6.6,88.8c-2.5,0-4.5-2-4.5-4.5s2-4.5,4.5-4.5h84.9c2.5,0,4.5,2,4.5,4.5s-2,4.5-4.5,4.5H6.6z"/>
		<path class="st1" d="M31.3,87.3c-3.9,0-7-3.2-7-7v-8.7c0-3.9,3.1-7,7-7h0.6V54.4c0-3.6,2.9-6.6,6.6-6.6H48c3.6,0,6.6,3,6.6,6.6
			v10.1h2.6c3.6,0,6.6,2.9,6.6,6.6v9.6c0,3.6-3,6.6-6.6,6.6L31.3,87.3L31.3,87.3z"/>
		<path class="st3" d="M28.5,82.2c0.5,1.4,1.8,2.3,3.3,2.3h8.6c1.5,0,2.8-1,3.3-2.3H28.5z"/>
		<path class="st3" d="M43.2,82.2c0.5,1.4-3.4,2.3-1.8,2.3h15.7c1.5,0,2.8-1,3.3-2.3H43.2z"/>
		<path class="st4" d="M57.2,84.8H46c-0.3,0-0.5-0.2-0.5-0.5s0.2-0.5,0.5-0.5h11.2c1.7,0,3.1-1.4,3.1-3.1v-9.6
			c0-1.7-1.4-3.1-3.1-3.1H46c-0.3,0-0.5-0.2-0.5-0.5S45.7,67,46,67h11.2c2.3,0,4.1,1.8,4.1,4.1v9.6C61.3,83,59.5,84.8,57.2,84.8z"/>
		<path class="st4" d="M34.8,65.9c-0.3,0-0.5-0.2-0.5-0.5v-11c0-2.3,1.8-4.1,4.1-4.1H48c2.3,0,4.1,1.8,4.1,4.1v10.8
			c0,0.3-0.2,0.5-0.5,0.5s-0.5-0.2-0.5-0.5V54.4c0-1.7-1.4-3.1-3.1-3.1h-9.6c-1.7,0-3.1,1.4-3.1,3.1v11
			C35.3,65.7,35.1,65.9,34.8,65.9z"/>
		<g>
			<g>
				<path class="st4" d="M42.7,63.1l-0.8,0c-0.6,0-1,0-1.3,0c-0.2,0-0.4,0-0.5,0c-0.3,0-0.5-0.1-0.6-0.2c-0.1-0.1-0.2-0.3-0.2-0.5
					c0-0.1,0-0.2,0.1-0.3c0-0.1,0.2-0.2,0.4-0.3c0.1-0.1,0.2-0.2,0.3-0.4c0-0.2,0.1-0.5,0.2-1.1c0.1-0.9,0.1-2,0.1-3.3
					c0-0.5,0-0.8-0.1-1c-0.1-0.2-0.2-0.3-0.5-0.4c-0.3-0.1-0.4-0.3-0.4-0.5c0-0.2,0.1-0.3,0.2-0.5s0.4-0.2,0.6-0.2
					c0.1,0,0.3,0,0.5,0c0.4,0,0.8,0,1.2,0c0.3,0,0.9,0,1.8,0c0.3,0,0.5,0,0.8,0c0.5,0,1,0,1.3,0.1s0.6,0.2,0.9,0.5
					c0.4,0.3,0.6,0.8,0.6,1.4c0,0.3-0.1,0.6-0.2,0.8s-0.3,0.5-0.5,0.7c-0.1,0.1-0.2,0.2-0.2,0.3s0.1,0.2,0.3,0.3
					c0.3,0.1,0.7,0.4,0.9,0.7c0.3,0.3,0.4,0.8,0.4,1.3c0,0.6-0.2,1.1-0.7,1.6c-0.6,0.7-1.4,1-2.5,1c-0.2,0-0.5,0-1.1,0
					C43.2,63.2,42.8,63.1,42.7,63.1z M43.1,56.4v1.3c0,0.2,0,0.3,0.1,0.4c0,0.1,0.1,0.1,0.3,0.1c0.3,0,0.5-0.1,0.7-0.3
					s0.2-0.5,0.2-0.9c0-0.4-0.1-0.7-0.2-0.9c-0.2-0.2-0.4-0.3-0.6-0.3c-0.1,0-0.2,0-0.3,0.1C43.2,56.1,43.1,56.2,43.1,56.4z
					 M43.1,60v0.6c0,0.5,0,0.9,0.1,1.1s0.2,0.3,0.5,0.3c0.6,0,0.9-0.4,0.9-1.1c0-0.9-0.3-1.4-1-1.4c-0.2,0-0.3,0-0.4,0.1
					C43.2,59.6,43.1,59.8,43.1,60z"/>
			</g>
		</g>
		<g>
			<g>
				<path class="st4" d="M52.4,71.5c0.6,0,1.2,0.1,1.8,0.4c0.3,0.1,0.5,0.2,0.5,0.2c0.1,0,0.2,0,0.4-0.1c0,0,0.1,0,0.2,0
					c0.2,0,0.4,0.1,0.6,0.3c0.4,0.5,0.6,1.1,0.6,1.8c0,0.5-0.2,0.9-0.5,1.1c-0.2,0.1-0.4,0.2-0.6,0.2c-0.2,0-0.4,0-0.5-0.1
					s-0.3-0.3-0.4-0.5c-0.2-0.3-0.3-0.6-0.4-0.7s-0.3-0.3-0.4-0.4c-0.4-0.3-0.8-0.4-1.3-0.4c-0.4,0-0.8,0.2-1,0.5s-0.4,0.7-0.4,1.2
					c0,0.7,0.2,1.4,0.5,1.9c0.5,0.8,1.2,1.2,2.1,1.2c0.3,0,0.7-0.1,1-0.2c0.3-0.1,0.6-0.3,0.8-0.4c0.2-0.2,0.3-0.2,0.4-0.2
					c0.1,0,0.3,0.1,0.4,0.2s0.2,0.3,0.2,0.5c0,0.2-0.1,0.5-0.2,0.8s-0.3,0.5-0.5,0.7c-0.1,0.1-0.3,0.1-0.5,0.2
					c-0.2,0-0.4,0.1-0.6,0.2c-0.6,0.3-1.3,0.4-1.9,0.4c-0.7,0-1.4-0.2-2.1-0.5c-0.8-0.4-1.4-0.9-1.9-1.7c-0.5-0.7-0.7-1.5-0.7-2.3
					c0-0.9,0.3-1.8,0.8-2.5c0.5-0.7,1.1-1.2,1.9-1.5C51.1,71.6,51.7,71.5,52.4,71.5z"/>
			</g>
		</g>
		<g>
			<path class="st4" d="M38.7,84.3h-6c-3,0-5.4-2.4-5.4-5.4v-6c0-3,2.4-5.4,5.4-5.4h6c3,0,5.4,2.4,5.4,5.4v6
				C44,81.9,41.6,84.3,38.7,84.3z"/>
			<path class="st4" d="M38.7,84.8h-6c-3.2,0-5.9-2.6-5.9-5.9v-6c0-3.2,2.6-5.9,5.9-5.9h6c3.2,0,5.9,2.6,5.9,5.9v6
				C44.5,82.2,41.9,84.8,38.7,84.8z M32.6,68c-2.7,0-4.9,2.2-4.9,4.9v6c0,2.7,2.2,4.9,4.9,4.9h6c2.7,0,4.9-2.2,4.9-4.9v-6
				c0-2.7-2.2-4.9-4.9-4.9H32.6z"/>
		</g>
		<path class="st4" d="M86.1,84.8H63.9c-0.3,0-0.5-0.2-0.5-0.5s0.2-0.5,0.5-0.5h22.2c0.3,0,0.5,0.2,0.5,0.5S86.4,84.8,86.1,84.8z"/>
		<path class="st4" d="M25.1,84.8H9.8c-0.3,0-0.5-0.2-0.5-0.5s0.2-0.5,0.5-0.5h15.3c0.3,0,0.5,0.2,0.5,0.5S25.4,84.8,25.1,84.8z"/>
		<path class="st4" d="M57,84.8H38.9c-0.3,0-0.5-0.2-0.5-0.5s0.2-0.5,0.5-0.5H57c0.3,0,0.5,0.2,0.5,0.5S57.3,84.8,57,84.8z"/>
		<g>
			<g>
				<path class="st1" d="M38.8,75.8l1.2,2.5c0.1,0.2,0.2,0.4,0.3,0.5s0.2,0.1,0.3,0.2c0.3,0,0.5,0.2,0.5,0.4c0,0.3-0.2,0.5-0.5,0.7
					c-0.4,0.1-1,0.2-1.8,0.2c-0.9,0-1.6,0-2.1-0.1c-0.2,0-0.4-0.1-0.5-0.2c-0.1-0.1-0.2-0.3-0.2-0.4c0-0.1,0-0.2,0.1-0.3
					c0.1-0.1,0.2-0.1,0.4-0.2c0.2-0.1,0.3-0.2,0.3-0.3c0-0.3-0.2-0.4-0.5-0.5c-0.4-0.1-0.9-0.1-1.5-0.1c-0.5,0-0.9,0-1,0.1
					c-0.1,0-0.1,0.1-0.2,0.2s-0.1,0.2-0.1,0.3c0,0.1,0,0.2,0,0.2c0,0,0.2,0.1,0.3,0.1c0.3,0.1,0.4,0.2,0.4,0.4
					c0,0.5-0.6,0.7-1.8,0.7c-0.7,0-1.2-0.1-1.5-0.1c-0.3-0.1-0.4-0.3-0.4-0.6c0-0.1,0-0.2,0.1-0.3c0.1-0.1,0.2-0.1,0.3-0.2
					c0.3-0.1,0.5-0.2,0.6-0.4c0.1-0.2,0.3-0.5,0.6-1.1l0.9-1.9c0.3-0.7,0.5-1.2,0.7-1.6s0.2-0.7,0.2-1c0-0.3,0-0.6,0.1-0.7
					c0-0.1,0.1-0.3,0.3-0.4c0.3-0.3,0.7-0.4,1.1-0.4c0.4,0,0.8,0.2,1.2,0.5C37.1,72.4,37.8,73.7,38.8,75.8z M34.5,76.6h1.2
					c0.2,0,0.3-0.1,0.3-0.2c0-0.1-0.2-0.5-0.5-1c-0.1-0.2-0.3-0.4-0.3-0.5c-0.1-0.1-0.2-0.1-0.2-0.1c-0.2,0-0.3,0.1-0.4,0.4
					c0,0-0.1,0.2-0.2,0.4c-0.2,0.4-0.3,0.7-0.3,0.8C34.3,76.6,34.3,76.6,34.5,76.6z"/>
			</g>
		</g>
	</g>
</g>
</svg>
