
<svg version="1.1" id="Layer_1" xmlns="http://www.w3.org/2000/svg" xmlns:xlink="http://www.w3.org/1999/xlink" x="0px" y="0px"
	 viewBox="0 0 125 100" style="enable-background:new 0 0 125 100;" xml:space="preserve">
<style type="text/css">
	.st0{fill:#F4E8DF;}
	.st1{fill:#FFFFFF;}
	.st2{fill:#EF4D33;}
	.st3{fill:#F59375;}
	.st4{fill:#F4D3BD;}
	.st5{fill:none;stroke:#EF4D33;stroke-miterlimit:10;}
</style>
<g id="Docum">
	<g>
		<path class="st0" d="M26.1,10.4c19.9-4.8,89.1,5.7,95,39.5c5.1,29-13.8,31.8-33.5,39.8c-19.8,8-42.4,10.2-50.3,10.4
			c-17,0.4-34.9-13.4-37.2-44.8C-1.7,28.6,8.4,14.7,26.1,10.4z"/>
		<g>
			<path class="st1" d="M11.9,90c-1.9,0-3.5-1.6-3.5-3.5s1.6-3.5,3.5-3.5h9.7c2,0,3.5,1.6,3.5,3.5S23.5,90,21.6,90H11.9z"/>
			<path class="st1" d="M21.6,86.1h-9.7c-0.2,0-0.4,0.2-0.4,0.4s0.2,0.4,0.4,0.4h9.7c0.2,0,0.4-0.2,0.4-0.4S21.8,86.1,21.6,86.1z"/>
			<path class="st1" d="M7.2,90c-1.9,0-3.5-1.6-3.5-3.5s1.6-3.5,3.5-3.5h19.3c-0.1-0.5-0.2-2.5-0.2-3l-5.2,1c-0.5,0.1-1,0.1-1.5,0.1
				c-4,0-7.4-2.8-8.1-6.7l-5.7-31c-0.4-2.2,0.1-4.3,1.3-6.2s3.1-3,5.3-3.4l13.9-2.6v-2.1c0-4.7,3.8-8.5,8.5-8.5h28.8l12.6,12.6v6.5
				h25c4.4,0,8,3.8,8,8.5v17.5c0,4.7-3.6,8.5-8,8.5h-25v6.8c0,0.6-0.1,1.2-0.2,1.8h35.3c1.9,0,3.5,1.6,3.5,3.5s-1.6,3.5-3.5,3.5H7.2
				z"/>
			<path class="st1" d="M101.3,42.9H73.1v-8.3L62.3,23.9H34.8c-2.9,0-5.3,2.4-5.3,5.3v6.3l-11.4,2.1L13,38.5
				c-2.8,0.5-4.6,3.2-4.1,5.9l5.7,31c0.5,2.8,3.1,4.6,5.9,4.1l8.9-1.7v3.5c0,2.2,1.4,4.1,3.3,4.9h-8c-0.2,0-0.4,0.2-0.4,0.4
				s0.2,0.4,0.4,0.4h63.1c0.2,0,0.4-0.2,0.4-0.4s-0.2-0.4-0.4-0.4H69.8c1.9-0.8,3.3-2.7,3.3-4.9v-10h28.2c2.7,0,4.9-2.4,4.9-5.4
				V48.3C106.1,45.3,103.9,42.9,101.3,42.9z"/>
		</g>
		<path class="st2" d="M21.4,87h-9.7c-0.3,0-0.5-0.2-0.5-0.5s0.2-0.5,0.5-0.5h9.7c0.3,0,0.5,0.2,0.5,0.5S21.7,87,21.4,87z"/>
		<path class="st2" d="M87.7,87H24.6c-0.3,0-0.5-0.2-0.5-0.5s0.2-0.5,0.5-0.5h63.1c0.3,0,0.5,0.2,0.5,0.5S88,87,87.7,87z"/>
		<path class="st2" d="M55.4,66.9H35.8c-0.3,0-0.5-0.2-0.5-0.5s0.2-0.5,0.5-0.5h19.7c0.3,0,0.5,0.2,0.5,0.5S55.7,66.9,55.4,66.9z"/>
		<path class="st3" d="M66.6,75.9H52c-0.3,0-0.5-0.2-0.5-0.5s0.2-0.5,0.5-0.5h14.5c0.3,0,0.5,0.2,0.5,0.5S66.8,75.9,66.6,75.9z"/>
		<path class="st3" d="M66.6,48h-7.3c-0.3,0-0.5-0.2-0.5-0.5S59,47,59.3,47h7.3c0.3,0,0.5,0.2,0.5,0.5S66.8,48,66.6,48z"/>
		<path class="st3" d="M66.6,45.1h-7.3c-0.3,0-0.5-0.2-0.5-0.5s0.2-0.5,0.5-0.5h7.3c0.3,0,0.5,0.2,0.5,0.5S66.8,45.1,66.6,45.1z"/>
		<path class="st2" d="M61.4,63.4H35.8c-0.3,0-0.5-0.2-0.5-0.5s0.2-0.5,0.5-0.5h25.6c0.3,0,0.5,0.2,0.5,0.5S61.7,63.4,61.4,63.4z"/>
		<path class="st2" d="M66.6,60H35.8c-0.3,0-0.5-0.2-0.5-0.5s0.2-0.5,0.5-0.5h30.8c0.3,0,0.5,0.2,0.5,0.5S66.8,60,66.6,60z"/>
		<path class="st2" d="M66.6,56.5H35.8c-0.3,0-0.5-0.2-0.5-0.5s0.2-0.5,0.5-0.5h30.8c0.3,0,0.5,0.2,0.5,0.5S66.8,56.5,66.6,56.5z"/>
		<path class="st3" d="M100.1,64.5H86.7c-0.3,0-0.5-0.2-0.5-0.5s0.2-0.5,0.5-0.5h13.4c0.3,0,0.5,0.2,0.5,0.5S100.4,64.5,100.1,64.5z
			"/>
		<path class="st2" d="M106,87H90.7c-0.3,0-0.5-0.2-0.5-0.5s0.2-0.5,0.5-0.5H106c0.3,0,0.5,0.2,0.5,0.5S106.3,87,106,87z"/>
		<path class="st4" d="M17,49.7c-1.2-7-1.4-8.3-3.6-13.1l-1.3,0.3c-2.2,0.5-3.7,3.2-3.3,5.9l5.7,31c0.4,2.8,2.4,3.9,4.5,4.4l2.7-0.5
			C17.5,68.2,19.3,63.9,17,49.7z"/>
		<path class="st4" d="M29.4,81.3v0.5c0,2.9,2.4,4.7,5.3,4.7h33c2.9,0,5.3-1.7,5.3-4.7v-0.5H29.4z"/>
		<path class="st5" d="M37.6,42.6"/>
		<path class="st2" d="M19.5,78.4c-1.1,0-2.2-0.3-3.1-1c-1.2-0.8-2.1-2.1-2.3-3.6l-5.7-31c-0.6-3,1.4-5.9,4.5-6.5L26,34
			c0.3,0,0.5,0.1,0.6,0.4s-0.1,0.5-0.4,0.6l-13.3,2.5c-2.5,0.5-4.1,2.8-3.7,5.3l5.7,31c0.2,1.2,0.9,2.2,1.9,2.9
			c1,0.7,2.2,0.9,3.4,0.7l4.7-0.9c0.3-0.1,0.5,0.1,0.6,0.4s-0.1,0.5-0.4,0.6l-4.7,0.9C20.2,78.4,19.8,78.4,19.5,78.4z"/>
		<path class="st2" d="M67.6,87h-33c-3.2,0-5.8-2.6-5.8-5.8v-52c0-3.2,2.6-5.8,5.8-5.8h27.8l11,11v46.8C73.4,84.4,70.8,87,67.6,87z
			 M34.7,24.4c-2.7,0-4.8,2.2-4.8,4.8v52c0,2.7,2.2,4.8,4.8,4.8h33c2.7,0,4.8-2.2,4.8-4.8V34.8L62,24.4H34.7z"/>
		<path class="st4" d="M101.1,71.4c2.7,0,4.9-2.2,4.9-4.9V55c-1,2.7-2.1,6.3-2.5,9.5c-0.8,6.3-7.9,5.1-12.4,4.4
			c-3.9-0.6-11.6,1.1-13.2,2.6H101.1z"/>
		<path class="st2" d="M101.1,71.7H77.3v-1h23.9c2.4,0,4.4-2.2,4.4-4.9V48.3c0-2.7-2-4.9-4.4-4.9H77.3v-1h23.9c3,0,5.4,2.6,5.4,5.9
			v17.5C106.5,69,104.1,71.7,101.1,71.7z"/>
		<path class="st3" d="M47.9,49.8h-9.3c-1.7,0-3-1.3-3-3v-9.3c0-1.7,1.3-3,3-3h9.3c1.7,0,3,1.3,3,3v9.3
			C50.9,48.5,49.6,49.8,47.9,49.8z"/>
		<path class="st2" d="M99.3,61.8H79.9c-1.1,0-2-0.9-2-2v-2.2c0-1.1,0.9-2,2-2h19.4c1.1,0,2,0.9,2,2v2.2
			C101.3,60.9,100.4,61.8,99.3,61.8z"/>
		<path class="st2" d="M41.5,32.3h-4c-1.1,0-1.9-0.9-1.9-1.9l0,0c0-1.1,0.9-1.9,1.9-1.9h4c1.1,0,1.9,0.9,1.9,1.9l0,0
			C43.4,31.5,42.5,32.3,41.5,32.3z"/>
		<g>
			<rect x="92.3" y="45.6" class="st1" width="7" height="6.4"/>
			<path class="st2" d="M92.2,45.6c-0.9,0-1.6,0.7-1.6,1.6v3.1c0,0.9,0.7,1.6,1.6,1.6h0L92.2,45.6L92.2,45.6z"/>
			<path class="st2" d="M93.9,48.7l-0.3,0.1l1.1,0.9c0,0,0,0,0,0.1l-0.1,0.4l1-0.2c0.1,0,0.1,0,0.1,0.1c0,0,0,0,0,0l-0.1,1h0.2
				l-0.1-1c0-0.1,0-0.1,0.1-0.1c0,0,0,0,0,0l1,0.2l-0.1-0.4c0,0,0-0.1,0-0.1l1.1-0.9l-0.3-0.1c0,0-0.1-0.1,0-0.1l0.2-0.7l-0.6,0.1
				c0,0-0.1,0-0.1,0L97,47.8l-0.5,0.5c0,0-0.1,0-0.1,0c0,0,0,0,0-0.1l0.2-1.2l-0.4,0.2c0,0-0.1,0-0.1,0l0,0l-0.4-0.8l-0.4,0.8
				c0,0-0.1,0-0.1,0l0,0L94.9,47l0.2,1.2c0,0,0,0.1-0.1,0.1c0,0-0.1,0-0.1,0l-0.5-0.5l-0.1,0.3c0,0-0.1,0-0.1,0L93.7,48L93.9,48.7
				C93.9,48.7,93.9,48.7,93.9,48.7z"/>
			<path class="st2" d="M99.3,45.6L99.3,45.6l0,6.4h0c0.9,0,1.6-0.7,1.6-1.6v-3.1C101,46.3,100.2,45.6,99.3,45.6z"/>
		</g>
		<path class="st2" d="M70.6,37.5h-3c-3.7,0-6.8-3-6.8-6.8v-4.3h1v4.3c0,3.2,2.6,5.8,5.8,5.8h3V37.5z"/>
	</g>
</g>
</svg>
