
<svg version="1.1" id="Layer_1" xmlns="http://www.w3.org/2000/svg" xmlns:xlink="http://www.w3.org/1999/xlink" x="0px" y="0px"
	 viewBox="0 0 125 100" style="enable-background:new 0 0 125 100;" xml:space="preserve">
<style type="text/css">
	.st0{fill:#F4E8DF;}
	.st1{fill:#FFFFFF;}
	.st2{fill:#EF4D33;}
	.st3{fill:#F4D3BD;}
</style>
<g id="Layer_7">
	<g>
		<path class="st0" d="M21.9,12.2c17.8-7.7,61.9-11.6,69,16c4.6,18,7.4,59.9-8.9,66.5c-16.4,6.6-40,5.2-46.5,5.4
			C21.4,100.3,2.9,92.3,1,66.3C-0.6,44.2-3.6,23.2,21.9,12.2z"/>
		<path class="st1" d="M27.5,94.6c-2.8,0-5.1-2.3-5.1-5.1v-0.7c0-1.1,0.4-2.1,1-3h-0.2c-5.8,0-10.5-4.7-10.5-10.5V56.5
			c0-5.8,4.7-10.5,10.5-10.5h12.9c-0.5-0.9-0.7-1.9-0.7-2.9V18.9c0-3.4,2.8-6.1,6.1-6.1h24.1c3.4,0,6.1,2.8,6.1,6.1V43
			c0,3.4-2.8,6.1-6.1,6.1h-0.5c1.8,1.9,3,4.5,3,7.3v18.9c0,5.8-4.7,10.5-10.5,10.5h-0.5c0.6,0.8,1,1.9,1,3v0.7c0,2.8-2.3,5.1-5,5.1
			L27.5,94.6L27.5,94.6z"/>
		<path class="st1" d="M75.7,93c-5.8,0-10.5-4.7-10.5-10.5s4.7-10.5,10.5-10.5s10.5,4.7,10.5,10.5S81.5,93,75.7,93z M75.7,81.1
			c-0.8,0-1.4,0.6-1.4,1.4s0.6,1.4,1.4,1.4s1.4-0.6,1.4-1.4S76.5,81.1,75.7,81.1z"/>
		<path class="st1" d="M66.5,93.1c-4.5,0-8.1-1.6-8.1-6.1v-9.1c0-4.5,3.6-8.1,8.1-8.1h5.6c4.5,0,8.1,3.6,8.1,8.1V87
			c0,4.5-3.6,6.1-8.1,6.1H66.5z"/>
		<path class="st1" d="M9.4,94.1c-2,0-3.6-1.6-3.6-3.6s1.6-3.6,3.6-3.6h79.4c2,0,3.6,1.6,3.6,3.6s-1.6,3.6-3.6,3.6H9.4z"/>
		<path class="st2" d="M72.1,73.9h-0.9h-3.7h-0.9c-2.2,0-4,1.8-4,4V87c0,2.2,1.8,4,4,4h0.9h3.7h0.9c2.2,0,4-1.8,4-4v-9.1
			C76.1,75.7,74.3,73.9,72.1,73.9z"/>
		<path class="st2" d="M75.7,88.9c-3.6,0-6.5-2.9-6.5-6.5s2.9-6.5,6.5-6.5s6.5,2.9,6.5,6.5S79.3,88.9,75.7,88.9z M75.7,77
			c-3,0-5.4,2.4-5.4,5.4s2.4,5.4,5.4,5.4s5.4-2.4,5.4-5.4S78.7,77,75.7,77z"/>
		<g>
			<path class="st1" d="M57.8,50c3.5,0,6.4,2.9,6.4,6.4v18.9c0,3.6-2.9,6.4-6.4,6.4H23.4c-3.5,0-6.4-2.9-6.4-6.4V56.5
				c0-3.5,2.9-6.4,6.4-6.4"/>
			<path class="st2" d="M57.8,82.3H23.4c-3.8,0-6.9-3.1-6.9-6.9V56.5c0-3.8,3.1-6.9,6.9-6.9c0.3,0,0.5,0.2,0.5,0.5s-0.2,0.5-0.5,0.5
				c-3.3,0-5.9,2.7-5.9,5.9v18.9c0,3.3,2.7,5.9,5.9,5.9h34.4c3.3,0,5.9-2.7,5.9-5.9V56.5c0-3.3-2.7-5.9-5.9-5.9
				c-0.3,0-0.5-0.2-0.5-0.5s0.2-0.5,0.5-0.5c3.8,0,6.9,3.1,6.9,6.9v18.9C64.7,79.2,61.6,82.3,57.8,82.3z"/>
		</g>
		<path class="st3" d="M17,77.5l1,1c0,3.6,4.9,3.4,8.5,3.4h29.3c3.5,0,7.5,0.2,7.5-3.4l1-1H17z"/>
		<path class="st2" d="M53.2,91H27.7c-0.8,0-1.5-0.7-1.5-1.5v-0.7c0-0.8,0.7-1.5,1.5-1.5h4.6v-2.9c0-0.3,0.2-0.5,0.5-0.5
			s0.5,0.2,0.5,0.5v3.9h-5.6c-0.3,0-0.5,0.2-0.5,0.5v0.7c0,0.3,0.2,0.5,0.5,0.5h25.5c0.3,0,0.5-0.2,0.5-0.5v-0.7
			c0-0.3-0.2-0.5-0.5-0.5h-5.4v-4c0-0.3,0.2-0.5,0.5-0.5s0.5,0.2,0.5,0.5v3h4.4c0.8,0,1.5,0.7,1.5,1.5v0.7C54.7,90.4,54,91,53.2,91z
			"/>
		<g>
			<path class="st2" d="M45.9,71.7c-0.5,0-1.1-0.2-1.5-0.6L40.3,67c-0.2-0.2-0.2-0.6,0-0.8c0.2-0.2,0.6-0.2,0.8,0l4.2,4.1
				c0.4,0.4,1,0.4,1.4,0c0.3-0.3,0.4-0.5,0.4-0.8c0-0.3-0.1-0.5-0.3-0.7l-4.2-4.1c-0.2-0.2-0.2-0.6,0-0.8c0.2-0.2,0.6-0.2,0.8,0
				l4.1,4.1c0.4,0.4,0.6,0.9,0.6,1.5s-0.2,1.1-0.6,1.5C47,71.5,46.5,71.7,45.9,71.7z"/>
			<path class="st2" d="M43.6,74c-0.5,0-1.1-0.2-1.5-0.6c-0.2-0.2-0.2-0.6,0-0.8s0.6-0.2,0.8,0c0.4,0.4,1,0.4,1.4,0
				c0.3-0.3,0.4-0.5,0.4-0.8c0-0.3-0.1-0.5-0.3-0.7c-0.2-0.2-0.2-0.6,0-0.8s0.6-0.2,0.8,0c0.8,0.8,0.8,2.2,0,3
				C44.7,73.8,44.2,74,43.6,74z"/>
			<path class="st2" d="M36.3,74.8c-0.5,0-1.1-0.2-1.5-0.6l-0.1-0.1c-0.4-0.4-0.6-0.9-0.6-1.5c0-0.6,0.2-1.1,0.6-1.5l2-1.9
				c0.8-0.8,2.2-0.8,3,0l0.1,0.1c0.4,0.4,0.6,0.9,0.6,1.5c0,0.6-0.2,1.1-0.6,1.5l-2,1.9C37.4,74.6,36.9,74.8,36.3,74.8z M38.2,69.7
				c-0.3,0-0.5,0.1-0.7,0.3l-2,1.9c-0.2,0.2-0.3,0.4-0.3,0.7s0.1,0.5,0.3,0.7l0.1,0.1c0.4,0.4,1,0.4,1.4,0l2-1.9
				c0.4-0.4,0.4-1,0-1.4l-0.1-0.1C38.7,69.8,38.5,69.7,38.2,69.7z"/>
			<path class="st2" d="M38.9,76.8c-0.6,0-1.1-0.2-1.5-0.6l-0.1-0.1c-0.4-0.4-0.6-0.9-0.6-1.5c0-0.6,0.2-1.1,0.6-1.5l2-1.9
				c0.8-0.8,2.2-0.8,3,0l0.1,0.1c0.8,0.8,0.8,2.2,0,3l-2,1.9C40,76.6,39.4,76.8,38.9,76.8z M40.7,71.6c-0.3,0-0.5,0.1-0.7,0.3
				l-2,1.9c-0.4,0.4-0.4,1,0,1.4l0.1,0.1c0.4,0.4,1,0.4,1.4,0l2-1.9c0.2-0.2,0.3-0.4,0.3-0.7s-0.1-0.5-0.3-0.7l-0.1-0.1
				C41.2,71.7,41,71.6,40.7,71.6z"/>
			<path class="st2" d="M30.8,67.2c-0.1,0-0.3,0-0.4-0.1c-0.1-0.1-2-1.5-2.5-4.2c-0.7-3.3,0.4-6.3,2.8-7.9c3.1-2.1,6.6-1.8,9.5,0.8
				c2-1.8,4.5-2.5,6.9-2c0.2,0,5.7,1.3,5.7,6.9c0,5.1-2.9,6.2-3,6.2c-0.3,0.1-0.6-0.1-0.7-0.3c-0.1-0.3,0-0.6,0.3-0.7
				c0.1,0,2.2-0.9,2.3-5.1c0-4.7-4.6-5.7-4.8-5.8c-2.2-0.5-4.4,0.3-6.2,2.1l-0.4,0.4L39.9,57c-2.6-2.6-5.7-3-8.4-1.1
				c-3,2.1-2.6,5.7-2.4,6.8c0.5,2.2,2.1,3.5,2.1,3.5c0.3,0.2,0.3,0.6,0.1,0.8C31.1,67.1,31,67.2,30.8,67.2z"/>
			<path class="st2" d="M48.2,69.4c-0.5,0-1.1-0.2-1.5-0.6l-4.2-4.1c-0.2-0.2-0.2-0.6,0-0.8c0.2-0.2,0.6-0.2,0.8,0l4.2,4.1
				c0.4,0.4,1,0.4,1.4,0c0.5-0.5,0.5-1.1,0.1-1.5c-4.2-4.1-4.2-4.1-4.2-4.1c-0.4-0.5-1.2-1.3-1.8-1.7c-0.4-0.3-1.2,0.1-1.6,0.5
				c-1,1-1.8,1.8-2.6,2.4c-0.4,0.3-0.8,0.4-1.3,0.3c-1.4-0.2-2.8-1.9-2.9-2.1l-0.3-0.4l5.5-5.3c0.2-0.2,0.6-0.2,0.8,0
				c0.2,0.2,0.2,0.6,0,0.8L36,61.6c0.6,0.6,1.7,1.6,2.3,1.1c0.7-0.5,1.5-1.3,2.4-2.3c0.6-0.7,2-1.3,3-0.7c0.8,0.5,1.8,1.6,2,1.9
				c0.1,0.1,4.1,4,4.1,4c0.8,0.8,0.8,2.2,0,3C49.3,69.2,48.8,69.4,48.2,69.4z"/>
			<path class="st2" d="M31.6,70.3c-0.6,0-1.1-0.2-1.5-0.6L30,69.6c-0.4-0.4-0.6-0.9-0.6-1.5c0-0.6,0.2-1.1,0.6-1.5l2-1.9
				c0.8-0.8,2.2-0.8,3,0l0.1,0.1c0.4,0.4,0.6,0.9,0.6,1.5c0,0.6-0.2,1.1-0.6,1.5l-2,1.9C32.7,70.1,32.2,70.3,31.6,70.3z M33.5,65.2
				c-0.3,0-0.5,0.1-0.7,0.3l-2,1.9c-0.4,0.4-0.4,1,0,1.4l0.1,0.1c0.4,0.4,1,0.4,1.4,0l2-1.9c0.2-0.2,0.3-0.4,0.3-0.7
				s-0.1-0.5-0.3-0.7l-0.1-0.1C34,65.3,33.7,65.2,33.5,65.2z"/>
			<path class="st2" d="M33.9,72.6c-0.6,0-1.1-0.2-1.5-0.6l-0.1-0.1c-0.4-0.4-0.6-0.9-0.6-1.5c0-0.6,0.2-1.1,0.6-1.5l2-1.9
				c0.8-0.8,2.2-0.8,3,0l0.1,0.1c0.8,0.8,0.8,2.2,0,3l-2,1.9C35,72.4,34.5,72.6,33.9,72.6z M35.7,67.4c-0.3,0-0.5,0.1-0.7,0.3
				l-2,1.9c-0.2,0.2-0.3,0.4-0.3,0.7s0.1,0.5,0.3,0.7l0.1,0.1c0.4,0.4,1,0.4,1.4,0l2-1.9c0.2-0.2,0.3-0.4,0.3-0.7s-0.1-0.5-0.3-0.7
				l-0.1-0.1C36.2,67.6,36,67.4,35.7,67.4z"/>
		</g>
		<path class="st2" d="M57.8,82.3H23.4c-3.8,0-6.9-3.1-6.9-6.9V56.5c0-3.8,3.1-6.9,6.9-6.9h20.1c0.3,0,0.5,0.2,0.5,0.5
			s-0.2,0.5-0.5,0.5H23.4c-3.3,0-5.9,2.7-5.9,5.9v18.9c0,3.3,2.7,5.9,5.9,5.9h34.4c3.3,0,5.9-2.7,5.9-5.9V56.5
			c0-3.3-2.7-5.9-5.9-5.9c-0.3,0-0.5-0.2-0.5-0.5s0.2-0.5,0.5-0.5c3.8,0,6.9,3.1,6.9,6.9v18.9C64.7,79.2,61.6,82.3,57.8,82.3z"/>
		<path class="st3" d="M68.1,42.9V17.7c-2.1,1.4-4.9,3-5.5,6.4c-0.8,4.2,4.3,12.4-0.3,16.8c-1.2,1.1-4.2,1.4-5.9,4.1l9.7-0.2
			C67.2,45,68.1,44,68.1,42.9z"/>
		<path class="st2" d="M50.8,52.1C50.7,52.1,50.7,52.1,50.8,52.1c-0.8,0-1.5-0.3-2-0.9l-0.1-0.1l-2.5-5c-0.3-0.3-0.7-0.5-1.2-0.5
			h-3.4c-1.4,0-2.5-1.1-2.5-2.5V18.9c0-1.4,1.1-2.5,2.5-2.5h24.1c1.4,0,2.6,1.1,2.6,2.5V43c0,1.4-1.1,2.5-2.6,2.5h-9.2
			c-0.4,0-0.8,0.2-1.1,0.5l-2.8,5.2C52.2,51.8,51.5,52.1,50.8,52.1z M49.6,50.6c0.3,0.3,0.7,0.5,1.1,0.5c0.5,0,0.8-0.2,1.2-0.5
			l2.8-5.2c0.5-0.5,1.2-0.9,1.9-0.9h9.2c0.8,0,1.6-0.7,1.6-1.5V18.9c0-0.9-0.7-1.5-1.6-1.5H41.7c-0.8,0-1.5,0.7-1.5,1.5V43
			c0,0.8,0.7,1.5,1.5,1.5h3.4c0.8,0,1.5,0.3,2,0.9l0.1,0.1L49.6,50.6z"/>
		<g>
			<path class="st2" d="M53,29.8c0-0.4-0.2-0.8-0.5-1.2c-0.3-0.4-0.7-0.5-1.2-0.5c-0.5,0-0.8,0-1.2-0.1c-0.3-0.1-0.5-0.3-0.5-0.8
				c0-0.4,0.2-0.7,0.5-0.7c0.3-0.1,0.7-0.1,1.2-0.1h3.4c0.4,0,0.8,0.2,1.2,0.5c0.4,0.4,0.5,0.7,0.5,1.2v6.9c0,0.4,0.2,0.8,0.5,1.2
				c0.3,0.3,0.7,0.5,1.2,0.5c0.2,0,0.4,0,0.6,0c0.2,0,0.4,0,0.5,0.1c0.4,0.1,0.5,0.3,0.5,0.7s-0.2,0.7-0.5,0.8
				c-0.3,0.1-0.7,0.1-1.2,0.1h-6.8c-0.5,0-0.8,0-1.2-0.1c-0.3-0.1-0.5-0.3-0.5-0.8c0-0.4,0.2-0.7,0.5-0.7c0.3-0.1,0.7-0.1,1.2-0.1
				c0.4,0,0.8-0.2,1.2-0.5c0.4-0.4,0.5-0.8,0.5-1.2V29.8z M52.7,24.1c-0.3-0.4-0.5-0.8-0.5-1.2s0.2-0.8,0.5-1.2s0.8-0.5,1.2-0.5
				s0.8,0.2,1.2,0.5c0.4,0.4,0.5,0.7,0.5,1.2c0,0.4-0.2,0.8-0.5,1.2c-0.4,0.4-0.8,0.5-1.2,0.5S53,24.5,52.7,24.1z"/>
		</g>
		<path class="st2" d="M52.6,91H10.8c-0.2,0-0.4-0.2-0.4-0.4s0.2-0.4,0.4-0.4h41.8c0.2,0,0.4,0.2,0.4,0.4S52.8,91,52.6,91z"/>
		<path class="st2" d="M86.5,91H61c-0.3,0-0.6-0.2-0.6-0.5S60.6,90,61,90h25.5c0.3,0,0.6,0.2,0.6,0.5C87.1,90.8,86.8,91,86.5,91z"/>
	</g>
</g>
</svg>
