
<svg version="1.1" id="Layer_1" xmlns="http://www.w3.org/2000/svg" xmlns:xlink="http://www.w3.org/1999/xlink" x="0px" y="0px"
	 viewBox="0 0 125 100" style="enable-background:new 0 0 125 100;" xml:space="preserve">
<style type="text/css">
	.st0{fill:#F4E8DF;}
	.st1{fill:#FFFFFF;}
	.st2{fill:#EF4D33;}
	.st3{fill:#F4D3BD;}
	.st4{fill:#F59375;}
</style>
<g id="Layer_9">
	<g>
		<path class="st0" d="M1.6,43.4C5.2,28.1,51.3-6.5,86.4,11c18.2,9.1,21.3,37,17.2,59.9c-3.8,20.8-48.3,34.2-73.7,27.3
			C8.5,92.4-4.8,71.7,1.6,43.4z"/>
		<g>
			<path class="st1" d="M25.9,87.9c-5,0-9.1-4.1-9.1-9.1v-4.3h-2.3c-5,0-9.1-4.1-9.1-9.1V52.8c0-5,4.1-9.1,9.1-9.1h15.6v-7.3
				c0-2,0.6-4,1.6-5.7c0.7-2.6,2.2-4.9,4.4-6.4c2.1-2.5,5.1-4,8.3-4h39c6.1,0,11.1,5.2,11.1,11.7v11.2c0,5.3-3.3,9.8-8,11.2
				c-2,1.9-4.6,2.9-7.4,2.9H53.3c4.1,0.9,7.2,4.5,7.2,8.9v12.7c0,5-4.1,9.1-9.1,9.1L25.9,87.9L25.9,87.9z"/>
			<path class="st1" d="M83.5,24h-39c-2.3,0-4.4,1.2-5.8,3c-1.8,1.1-3.1,2.9-3.5,5.1c-0.9,1.2-1.4,2.7-1.4,4.3v11H14.5
				c-3,0-5.4,2.4-5.4,5.4v12.7c0,3,2.4,5.4,5.4,5.4h5.9v7.9c0,3,2.4,5.4,5.4,5.4h25.5c3,0,5.4-2.4,5.4-5.4V66.2c0-3-2.4-5.4-5.4-5.4
				h-5.9v-7.1h33.6c2.2,0,4.2-1,5.5-2.6c3.6-0.6,6.3-3.9,6.3-8V32C90.9,27.6,87.6,24,83.5,24z"/>
			<path class="st2" d="M87.9,84.8H80c-0.3,0-0.5-0.2-0.5-0.5s0.2-0.5,0.5-0.5h7.8c0.3,0,0.5,0.2,0.5,0.5S88.2,84.8,87.9,84.8z"/>
			<path class="st1" d="M23.4,87.2c-2.3,0-4.1-1.8-4.1-4.1s1.8-4.1,4.1-4.1l75.6,1.2c2.3,0,4.1,1.8,4.1,4.1s-1.8,4.1-4.1,4.1
				L23.4,87.2z"/>
			<path class="st2" d="M87.9,84.8H80c-0.3,0-0.4-0.2-0.4-0.4s0.2-0.4,0.4-0.4h7.8c0.3,0,0.4,0.2,0.4,0.4S88.1,84.8,87.9,84.8z"/>
			<path class="st2" d="M76.3,84.8H25.9c-0.3,0-0.5-0.2-0.5-0.5s0.2-0.5,0.5-0.5h50.4c0.3,0,0.5,0.2,0.5,0.5S76.6,84.8,76.3,84.8z"
				/>
			<g>
				<path class="st2" d="M79.1,54.2h-30c-0.3,0-0.5-0.2-0.5-0.5s0.2-0.5,0.5-0.5h30c3.7,0,6.8-3,6.8-6.8v-10c0-3.7-3-6.8-6.8-6.8H41
					c-3.7,0-6.8,3-6.8,6.8V43c0,0.3-0.2,0.5-0.5,0.5s-0.5-0.2-0.5-0.5v-6.6c0-4.3,3.5-7.8,7.8-7.8h38.1c4.3,0,7.8,3.5,7.8,7.8v10
					C86.9,50.7,83.4,54.2,79.1,54.2z"/>
				<path class="st2" d="M88.3,48.1c-0.1,0-0.1,0-0.2,0c-0.3-0.1-0.4-0.4-0.3-0.6c0.2-0.5,0.3-1.1,0.3-1.7V32.2c0-2.8-2.3-5-5-5
					H41.5c-0.7,0-1.3,0.1-2,0.4c-0.3,0.1-0.5,0-0.7-0.3s0-0.5,0.3-0.7c0.7-0.3,1.5-0.5,2.3-0.5h41.5c3.3,0,6,2.7,6,6v13.5
					c0,0.7-0.1,1.4-0.4,2C88.7,48,88.5,48.1,88.3,48.1z"/>
				<path class="st2" d="M90.5,46c-0.1,0-0.1,0-0.2,0c-0.3-0.1-0.4-0.4-0.3-0.7c0.3-0.6,0.4-1.3,0.4-2V29.9c0-2.8-2.3-5-5-5H43.8
					c-0.5,0-0.9,0.1-1.4,0.2c-0.3,0.1-0.5-0.1-0.6-0.3c-0.1-0.3,0.1-0.5,0.3-0.6c0.5-0.2,1.1-0.2,1.7-0.2h41.5c3.3,0,6,2.7,6,6v13.5
					c0,0.8-0.2,1.6-0.5,2.3C90.8,45.9,90.7,46,90.5,46z"/>
				<circle class="st2" cx="60.1" cy="41.4" r="9.6"/>
				<g>
					<path class="st1" d="M63.2,39c0,0-0.3-0.1-0.8-0.4c-0.5-0.3-1-0.4-1.3-0.4c-0.7,0-1,0.3-1,1c0,0.4,0.3,0.7,1,1.1
						c1,0.6,1.6,1,1.8,1.1c0.6,0.5,1,1.2,1,2c0,1.6-1,2.7-3,3.3c0,1,0.1,1.5,0.1,1.6c0,0.1-0.1,0.1-0.2,0.1c-0.1,0-0.2,0-0.4,0
						c-0.2,0-0.3,0-0.3,0c-0.1,0-0.2,0-0.3,0c-0.2,0-0.3,0-0.3,0c0,0-0.1,0-0.1,0c0,0,0-0.2,0-0.5c0-0.2,0-0.5,0-0.9
						c-1.6,0-2.5-0.1-2.5-0.3c0,0,0-0.1,0-0.2c0-0.1,0-0.2,0-0.2c0-0.2,0-0.5-0.1-0.9c0-0.1-0.1-0.3-0.1-0.6
						c-0.1-0.3-0.1-0.5-0.1-0.6s0.1-0.2,0.2-0.2c0.2,0,0.4,0,0.8,0.1c0.4,0.1,0.7,0.1,0.9,0.1c1.1,0,1.6-0.3,1.6-1
						c0-0.3-0.3-0.7-0.9-1.2c-1-0.7-1.6-1.1-1.7-1.3c-0.6-0.6-0.9-1.2-0.9-2c0-0.8,0.3-1.5,0.9-2.1c0.6-0.6,1.3-1,2.1-1.1
						c0,0,0-0.1,0-0.4c0-0.3,0-0.5,0-0.6c0-0.2,0.1-0.3,0.2-0.3h1.6c0.1,0,0.1,0.1,0.1,0.3c0,0.1,0,0.3,0,0.6c0,0.3,0,0.5,0,0.4
						c0.4,0,0.9,0.2,1.7,0.4c0.9,0.3,1.4,0.5,1.4,0.7c0,0,0,0.1,0,0.2c-0.1,0.2-0.2,0.5-0.3,0.8c0,0.2-0.1,0.5-0.2,0.9
						C63.3,38.9,63.3,39,63.2,39z"/>
				</g>
			</g>
			<g>
				<path class="st3" d="M13.5,65.2c-0.7,4.4,3.1,5.8,3.1,5.8h-2.4l-2.5-0.8l-1.9-2l-0.7-2.6v-3.9l0.3-10.4l1.3-2.1l2.5-1.4
					c0,0-2.9,3.7-0.7,7.5C13.2,56.3,14.1,61.1,13.5,65.2z"/>
				<path class="st3" d="M20.9,81c0.8,2,2.8,3.3,5,3.3h25.5c2.3,0,4.2-1.4,5-3.3H20.9z"/>
				<rect x="9.1" y="52.6" class="st4" width="36.4" height="3.8"/>
				<path class="st2" d="M50.8,84.8H26.4c-3.6,0-6.5-2.9-6.5-6.5V66.8c0-3.6,2.9-6.5,6.5-6.5h24.4c3.6,0,6.5,2.9,6.5,6.5v11.6
					C57.3,81.9,54.4,84.8,50.8,84.8z M26.4,61.3c-3,0-5.5,2.5-5.5,5.5v11.6c0,3,2.5,5.5,5.5,5.5h24.4c3,0,5.5-2.5,5.5-5.5V66.8
					c0-3-2.5-5.5-5.5-5.5H26.4z"/>
				<path class="st2" d="M16.5,71.4h-2c-3.3,0-5.9-2.7-5.9-5.9V52.8c0-3.3,2.7-5.9,5.9-5.9h25.5c3.3,0,5.9,2.7,5.9,5.9v4.8
					c0,0.3-0.2,0.5-0.5,0.5S45,57.9,45,57.6v-4.8c0-2.7-2.2-4.9-4.9-4.9H14.5c-2.7,0-4.9,2.2-4.9,4.9v12.7c0,2.7,2.2,4.9,4.9,4.9h2
					c0.3,0,0.5,0.2,0.5,0.5S16.8,71.4,16.5,71.4z"/>
				<path class="st2" d="M52,69.6h-4.5c-0.9,0-1.6-0.7-1.6-1.6v-1.4c0-0.9,0.7-1.6,1.6-1.6H52c0.9,0,1.6,0.7,1.6,1.6v1.4
					C53.6,68.8,52.9,69.6,52,69.6z"/>
				<path class="st4" d="M52.8,79.8H24.5c-0.5,0-1-0.4-1-1v-0.9c0-0.6,0.5-1,1-1h28.3c0.5,0,1,0.4,1,1v0.9
					C53.8,79.3,53.3,79.8,52.8,79.8z"/>
				<path class="st2" d="M27.8,66.5h-3.3c-0.3,0-0.5-0.2-0.5-0.5s0.2-0.5,0.5-0.5h3.3c0.3,0,0.5,0.2,0.5,0.5S28,66.5,27.8,66.5z"/>
				<path class="st2" d="M40.5,66.5h-10c-0.3,0-0.5-0.2-0.5-0.5s0.2-0.5,0.5-0.5h10c0.3,0,0.5,0.2,0.5,0.5S40.8,66.5,40.5,66.5z"/>
				<path class="st2" d="M40.5,68.9H24.4c-0.3,0-0.5-0.2-0.5-0.5s0.2-0.5,0.5-0.5h16.1c0.3,0,0.5,0.2,0.5,0.5S40.8,68.9,40.5,68.9z"
					/>
			</g>
			<path class="st2" d="M87.9,84.8H80c-0.3,0-0.5-0.2-0.5-0.5s0.2-0.5,0.5-0.5h7.8c0.3,0,0.5,0.2,0.5,0.5S88.2,84.8,87.9,84.8z"/>
		</g>
	</g>
</g>
</svg>
