<?xml version="1.0" encoding="UTF-8"?>
<svg enable-background="new 0 0 125 100" version="1.1" viewBox="0 0 125 100" xml:space="preserve" xmlns="http://www.w3.org/2000/svg" xmlns:xlink="http://www.w3.org/1999/xlink">
<style type="text/css">
	.st0{fill:#F4E8DF;}
	.st1{fill:#FFFFFF;}
	.st2{clip-path:url(#c);}
	.st3{fill:#EF4D33;}
	.st4{fill:#F4D3BD;}
	.st5{fill:#F59375;}
	.st6{clip-path:url(#a);}
</style>
		<path class="st0" d="m21.7 10.9c22.3-6 78.8-6.6 87.3 26.3 5.5 21.5 2.5 43.1-16.9 51-19.6 7.8-46.7 11.6-54.5 11.8-16.8 0.4-35.1-7.7-37.3-38.8-1.9-26.3 5-46 21.4-50.3z"/>
		<path class="st1" d="M6,88.3c-2.5,0-4.6-1.9-4.6-4.2s2.1-4.2,4.6-4.2h101.1c2.6,0,4.6,1.9,4.6,4.2s-2.1,4.2-4.6,4.2H6z"/>
		<path class="st1" d="m21.9 88.1c-6.6 0-12-5.4-12-12v-46.4c0-6.6 5.4-12 12-12h62.1c6.6 0 12 5.4 12 12v46.4c0 6.6-5.4 12-12 12h-62.1z"/>
				<defs>
					<path id="d" d="m84.1 84.1h-62.2c-4.4 0-8-3.6-8-8v-46.4c0-4.4 3.6-8 8-8h62.1c4.4 0 8 3.6 8 8v46.4c0.1 4.4-3.5 8-7.9 8z"/>
				</defs>
				<clipPath id="c">
					<use xlink:href="#d"/>
				</clipPath>
				<g class="st2">
						<polyline class="st1" points="75.2 25.8 10 25.8 10 19.2 94.8 19.2 94.8 25.8 82.2 25.8"/>
						<path class="st3" d="m95.3 26.3h-13.1c-0.3 0-0.5-0.2-0.5-0.5s0.2-0.5 0.5-0.5h12.2v-5.6h-83.9v5.6h64.8c0.3 0 0.5 0.2 0.5 0.5s-0.2 0.5-0.5 0.5h-65.8v-7.6h85.8v7.6z"/>
					<rect class="st4" x="10" y="79.2" width="84.8" height="6.7"/>
				</g>
		<path class="st3" d="m84.1 84.6h-62.2c-4.7 0-8.5-3.8-8.5-8.5v-46.4c0-4.7 3.8-8.5 8.5-8.5h62.1c4.7 0 8.5 3.8 8.5 8.5v46.4c0.1 4.7-3.7 8.5-8.4 8.5zm-62.2-62.4c-4.1 0-7.5 3.4-7.5 7.5v46.4c0 4.1 3.4 7.5 7.5 7.5h62.1c4.1 0 7.5-3.4 7.5-7.5v-46.4c0-4.1-3.4-7.5-7.5-7.5h-62.1z"/>
		<path class="st3" d="M93.3,84.6H7c-0.3,0-0.5-0.2-0.5-0.5s0.2-0.5,0.5-0.5h86.3c0.3,0,0.5,0.2,0.5,0.5S93.6,84.6,93.3,84.6z"/>
		<path class="st3" d="m102.4 84.6h-5.9c-0.3 0-0.5-0.2-0.5-0.5s0.2-0.5 0.5-0.5h5.9c0.3 0 0.5 0.2 0.5 0.5s-0.3 0.5-0.5 0.5z"/>
		<path class="st5" d="m34.3 72.5h-12.6c-0.3 0-0.5-0.2-0.5-0.5s0.2-0.5 0.5-0.5h12.5c0.3 0 0.5 0.2 0.5 0.5s-0.1 0.5-0.4 0.5z"/>
		<path class="st5" d="m39.8 75.7h-18.1c-0.3 0-0.5-0.2-0.5-0.5s0.2-0.5 0.5-0.5h18.1c0.3 0 0.5 0.2 0.5 0.5s-0.2 0.5-0.5 0.5z"/>
				<defs>
					<rect id="b" x="13" y="26.3" width="81.8" height="52.9"/>
				</defs>
				<clipPath id="a">
					<use xlink:href="#b"/>
				</clipPath>
				<g class="st6">
							<polygon class="st4" points="37.2 36.6 36.6 38.3 38.3 40.3 40.7 43.2 41.3 43.2 41.7 43.6 42.3 44.5 44.4 45.4 46.5 45.8 46.8 46.5 46.8 48.3 46.6 52.8 51.6 52.7 51.6 52.1 52.7 48.8 53.2 48.7 53 47.9 53.2 47.9 53.7 48 54.2 47.1 52.7 46.8 51.2 46.5 50.2 46 50.4 45.5 52.5 46.1 53.6 46.5 54.2 46.5 54.5 45.8 55.4 45.5 55.9 43.9 55.2 43.6 54.2 43.6 53.2 42.8 53.7 42.5 54.8 43.2 55.6 43.4 56.3 42.4 55.7 41.8 56 41.4 57.3 41.6 56.3 40.7 56.7 40.4 57.8 41.4 58.3 39.7 57.3 38.3 57.2 38 57.8 37.7 57.7 37.5 57.4 37.5 57.4 37 57.7 36.9 56.7 36.3 56.2 36.5 55.5 36.3 55.2 36.8 56 37.2 56 37.8 55.6 37.9 55.8 40 55.4 41 54.5 40 54.2 38.8 54.5 38.6 53.7 37.6 53.5 39.2 53.2 39.3 52.8 37.4 52.1 37.4 51.4 36.3 52 35.9 50.9 34.1 50.1 34.1 50.1 34.6 49.8 34.6 50 35.5 49.8 36.3 50.1 36.9 50.9 37.2 51.4 37.2 51.6 37.6 51.1 38 51.6 38.2 51.6 39 50.9 40 50.5 40 50.5 40.7 50.8 41.5 50.5 41.7 50.2 41.5 50 40.3 50 39.5 49.6 39.8 49.2 39.2 48.8 39.4 49.6 40.4 49.4 40.6 48.9 40.2 48.3 40.6 47.5 40.4 46.6 40.6 46.2 40 45.5 40 45 39.1 44.4 39.7 43.7 40 43.9 41.6 43.6 41.7 43.8 42.5 42.8 41.3 43.2 41 43.1 40.5 42.7 40.8 42.6 39.8 41.6 39.7 40.3 39.9 39.2 39.3 39.2 38.6 40.3 38.6 40.3 38.2 39.6 37.3 39.1 37.8 38.2 36.6"/>
							<polygon class="st4" points="49.2 37.2 48.3 38.6 50.1 39 50.4 38.4"/>
							<path class="st4" d="m47.1 36.4l-1.3-1.4-0.2-2.8-0.6-0.6h-0.5l0.3 1.7-0.5 0.8-0.3-0.2-0.2-1.7-0.4-0.6v1.3l-0.4 3.5-0.5 0.2-0.6-0.3-0.8 0.5-0.1-0.6-1.2-0.3c-0.1 0.2 0 1.1 0 1.1l0.9 0.2v1.1l0.5 0.4h1.6l1.5-1.4h0.5v0.7l0.5 0.3h1.3l0.3-0.5h-0.7l-0.2-0.6 0.8-0.3 0.3 0.3 0.3-0.4-0.3-0.4z"/>
							<path class="st4" d="m39.5 36.8v-1h1.5l0.3 0.5 0.4-0.3 0.7 0.2s0.4 0.2 0.4 0c0-0.1 0.6-3.5 0.6-3.5h-0.8l0.2-0.7-0.4-0.2-0.8 0.5-0.2-0.5 0.4-0.2v-0.6l-1.7 0.6-0.3 0.9-0.7 0.6 0.7 0.1-0.3 0.5 1.7-0.1-0.3 0.5h-1.5l0.4 0.8 0.7 0.4h1.3l0.6 0.5-0.3 0.2-1-0.2h-1.9l0.3 1z"/>
							<polygon class="st4" points="43.3 39 44.6 38.4 44.6 38.9 43.4 39.5"/>
							<polygon class="st4" points="37.1 33.2 37.4 32.7 38.6 32.9 38.6 31.5 39 31.6 39.5 31 41.4 30.3 40.8 29 40.2 29 39.7 28.3 38.5 28.1 38.2 28.6 38.1 29.2 36.6 31 37.1 32.2"/>
							<path class="st4" d="m56.6 42.6c0 0.1 0.2 3.3 0.2 3.3l0.6-0.1 0.1 0.7h0.4l0.8-1.9 0.8 0.7h0.8v-0.8l-0.7 0.5-0.8-1.2-0.7-0.1-0.7-0.7-0.2 0.5h-0.2l-0.4-0.9z"/>
							<polygon class="st4" points="59.7 46.5 58.9 47 59.1 47.9 59.7 47.7"/>
							<polygon class="st4" points="61.6 46.9 61.5 47.6 61.8 47.9 62 47.4"/>
							<path class="st4" d="m69.3 43.3l-1.6-0.7-0.3-0.7h1.3l1.7 0.3-0.1-0.6-0.7-0.8 0.4-0.2-0.6-0.5-0.4 0.4-0.1-0.4-3-1.2-0.2-0.4h0.8l-0.3-0.5 0.3-0.3 0.1-0.4 0.8 0.6s0.1-0.5 0.1-0.4 0.3 0.1 0.3 0.1v0.2l0.2-0.8h0.3l0.2 0.6-0.5 0.4 0.7 0.4 0.8 0.1-0.1-0.6-0.4-0.3v-0.3l0.6 0.2-0.4-0.6 0.5-0.2-0.5-0.2-0.2-0.2 0.5-0.3-0.2-0.5-0.7 0.5-0.4 0.2-0.3 0.2 0.1-0.8-0.7 0.4h-0.4l0.1-0.4 0.3-0.2-0.8-0.2-0.7 0.4-0.7-0.6-0.7 0.2 0.1-0.9-0.5 0.6-0.5-0.5 1.2-0.7-1.3 0.4v-0.4l0.6-0.7-0.4-0.2-0.3 0.7-0.3 0.4 0.1-0.6-0.3 0.4-0.2-0.2v-1.1l-1 0.8-0.2-0.4-0.4 0.3-0.4-0.4 0.6-1-0.7-0.2v0.8l-0.4-0.2-0.2 0.3h-0.2l-0.2 0.1-0.1-1.1-0.7 0.3-0.1-0.3 0.2-0.5h-1l-0.4 0.5 0.4 0.2-0.3 0.2 0.3 0.3-0.2 0.3-0.4-0.5-0.6 0.1v0.5h-0.2l-1.1-2.7-0.4 0.3v0.4l-0.4 0.2 0.4 0.1-0.3 0.3h0.2v0.3l-0.3 0.1-0.2 0.5 0.6-0.1 0.2 0.8-0.6-0.2v0.4l0.5 0.2 0.2 0.7-0.1 0.5-0.4 0.2-0.2-0.5 0.3-0.4-0.3-0.3-0.8-0.9 0.2-2h-0.5l-0.7 1.6v1.3l0.2 0.7 0.9 0.2 0.5 0.5-0.2 0.1-0.9-0.1 0.6 0.9 0.9-0.5 0.2 0.5 2 0.1-0.7-0.7 0.9 0.1 1.3-0.1-0.6-0.3v-0.6l0.6-0.6v0.8s0.7 0 0.7 0l-0.2 1.1 0.5-0.8 0.2 0.3-0.2 0.7 0.6-0.5 0.4 0.8-0.2 0.7 0.8-0.8 0.4 0.2v0.6l0.4-0.7 0.2 0.6 0.6 0.1 0.5 1.2 0.4 0.6-0.1 0.8-0.6 0.6c0.1 0 0.9 1.1 0.9 1.1l-0.2 0.2-0.2-0.2-0.5 0.7h-1.4l-0.2 0.7 0.8 0.9 0.8-0.3 0.3-0.6h0.6l-0.6-0.5 0.5-0.3 0.2 0.5 0.5-0.2 1 0.8 0.4-0.3 0.7 0.4-0.1 0.5 1.4 0.2 1.3 0.4 1.5-0.2v-0.4l-1.2 0.1z"/>
							<polygon class="st4" points="60.6 37.5 61.3 37.3 61.9 38.3 61.5 38.9 60.7 38.6"/>
							<path class="st4" d="M61.9,37c0,0.1,0.4,0.5,0.4,0.5l0.2-0.3v-0.5L61.9,37z"/>
							<path class="st4" d="M56,29.8c0.1,0,0.8,1,0.8,1l1.4-0.6l-1.4-0.3H56z"/>
							<path class="st4" d="m49.8 30.8c0 0.2 0.5 2.6 0.5 2.6l0.7-0.5-0.5-0.8 0.9-0.2c0-0.1 0.5-1.6 0.5-1.6l-2-0.1 0.1 0.2s0.5 0.1 0.4 0.2c0 0.1-0.2 0.3-0.2 0.3l-0.4-0.1z"/>
							<polygon class="st4" points="48.9 30.8 47.6 30.6 47.9 31.4 47.6 31.8 48.1 32 48 32.5 47.5 32.6 47.3 32.2 47 32.2 46.9 32.6 47.9 33.1 48.4 34.5 48.8 34.5 48.9 33.8 49.6 33.7 49.5 32.5 49.1 32.7 48.8 31.9 49.2 31.8 49 31.6 48.8 31.3"/>
							<path class="st4" d="m50.3 28h-0.7l-0.2 0.7 0.7 0.6 0.4-0.2-0.2-1.1z"/>
							<path class="st4" d="m50.5 26v0.9l0.3 0.4 0.2 1.5 0.7 0.3 0.4-0.5 0.4 0.1v0.3l1.3-0.3 0.4-0.4 0.1-0.4 0.4 0.5 0.5 0.1v-0.5l0.4-0.2-0.5-0.2v-0.4l0.2-0.1-0.5-0.4h-0.9l-1 0.7-1 0.1-1.2-0.7s-0.2-0.3 0-0.3 0.8 0 0.8 0l0.1-0.2-0.7-0.3h-0.4z"/>
							<path class="st4" d="m51.8 23.9c0.1 0 0.1 0.5 0.1 0.5l0.5 0.3-1.1 0.9 0.2 0.4 1-0.2 0.3 0.3v-0.4l0.4-0.3h0.4v0.3l0.2-0.5 0.4 0.2v0.6l0.9-1-0.5-0.2v-0.4l-0.8 0.2-0.3-0.9 0.3 0.1 0.2 0.2h0.7s-0.3-0.4-0.2-0.4-0.1-0.6-0.1-0.6l0.8-0.3-0.4-0.3 0.1-1h-0.7l-0.2-0.7 0.8-0.4-0.4-0.6h0.8s-0.3-1.5-0.2-1.6 0.5-1.3 0.5-1.3l-0.8 0.6v-0.5l-0.4-0.1 0.8-0.6 0.3-0.8-0.5-0.2-0.4-0.4-0.5 0.2-0.3 0.7-0.1-0.7h-0.6l-0.1 0.3-0.5-0.1h-0.6l0.4 0.4-0.4-0.1-0.4-0.1v0.4l0.2 0.1-0.3 0.1 0.1 0.4v0.6l-0.2-0.1-0.2-0.5-0.3 0.4 0.2 0.2-0.6 0.5h-0.3l-0.3 0.5s0.8-0.3 0.7-0.2c0 0.1-0.1 1-0.1 1l0.8-0.6-0.3 0.6 0.2 0.4 0.4-0.7v0.8l0.4-0.1v-0.5l0.3 0.5 0.5-0.3-0.2-1.1h0.5l-0.1 0.7 0.6-0.3 0.2 0.3-0.5 0.5-0.8 0.9 0.3 0.3-0.4 0.1h-0.3l-0.4-0.2-0.1 0.5 0.6 0.1 0.2 0.5 0.3 0.3 0.6 0.1v0.3l-0.3 0.4h-0.6l-0.3 0.7h0.3l0.4-0.1v1.1s0.4 0 0.4 0l0.1-0.4 0.2 0.1v0.8h-0.6l-0.9-0.6z"/>
							<polygon class="st4" points="50.9 24.4 50.9 24.7 51.3 24.6"/>
							<polygon class="st4" points="45.1 30.9 45.8 31.8 46 30.8 45.6 30.5"/>
							<path class="st4" d="m42.4 28.6l0.3 0.4 1.3-0.3 0.3-1.4-0.4 0.1-0.2-0.4 0.1-0.5-0.9-0.7-0.1 0.4-0.4 0.1h-0.4l0.4 0.2-0.1 0.1-0.5-0.1v0.2l0.5 0.1v0.2l-0.3 0.3h-0.6l0.4 0.4h0.5l0.2-0.5h0.5l-0.1 0.4 1 0.1-0.1 0.4-0.6 0.2-0.8 0.3z"/>
							<polygon class="st4" points="44.4 27.5 44.3 28.5 44.9 28.2 45.3 28.6 45.7 28.4 45.9 26.8 45.7 26.9 45.6 27.5 45.3 27.4 45 26.9 44.9 26.4 45.1 26.1 45 25.6 44.7 25.7 44.6 26.6 44.8 27.3 45 27.5 44.9 27.7"/>
							<polygon class="st4" points="47.1 27.6 47.5 27.2 47.2 26.4 47.5 26.4 47.8 27.2 48.1 27.2 47.8 26.2 48.2 26.2 48.8 27 48.8 27.8 48.4 28.6 47.8 28.6 47.6 28 48.1 27.7 48.1 27.4 47.6 27.5"/>
							<path class="st4" d="m46.5 26.4l0.1 0.5 0.3-0.2s-0.3-0.3-0.4-0.3z"/>
							<polygon class="st4" points="46.4 28 46.1 28.4 46.5 28.4 46.6 28"/>
							<polygon class="st4" points="49.3 25.4 49.3 26 50.1 26.7 50.3 26.2 50 25.7"/>
							<polygon class="st4" points="46.2 24.3 46.2 24.8 46.5 25.1 46.7 24.8"/>
							<polygon class="st4" points="44.7 23.7 44 23.7 43.8 24.2 44.2 24.5 44.6 24.4 44.5 24"/>
							<rect class="st4" x="43.4" y="23.5" width=".2" height=".2"/>
							<path class="st4" d="m42.7 24.1l-0.3 0.6-0.3-0.1-0.1-0.3-2 1.3v0.2l0.3 0.1h0.2v-0.2h0.2v0.4h0.3v-0.6l0.2-0.1 0.2 0.3 0.4-0.7h0.3l-0.1 0.7 0.6-0.5-0.2-0.3 0.3-0.3v-0.5z"/>
							<polygon class="st4" points="44.2 22.9 44.8 22.6 45 23.1"/>
							<polygon class="st4" points="46.9 21.7 46.5 21.9 46.5 22.3 46.9 22.3 47 23.1 46.5 23 46.6 23.3 47.5 23.3 48.1 24 47.5 22.2 47.1 22.3"/>
							<path class="st4" d="m48.6 22.5v0.7l0.5 0.9 0.3-0.2 0.1-0.7-0.9-0.7z"/>
							<polygon class="st4" points="49.4 24.3 50 24.3 50 24.6 49.5 24.7 49.3 24.5"/>
							<path class="st4" d="m49.6 21.3h0.5l0.2 0.3-0.4 0.2-0.1 0.5 0.5 0.2s0 0.3-0.1 0.3-0.2 0.2-0.2 0.2l0.4 0.4 0.2-0.3h0.3l-0.2-0.5h0.4l0.1 0.5 0.2-0.5-0.2-0.3-0.2-0.4 0.2-0.2s0.2 0.3 0.2 0.4 0.5-0.8 0.5-0.8l-0.2-0.3-0.4 0.1v-0.4l-1.5-1.9-0.4 0.3 0.3 0.5-0.3 0.2h-0.3v0.3l0.5 0.2v0.3l-0.4-0.2v0.5l0.5 0.2-0.1 0.2z"/>
							<polygon class="st4" points="48.1 20.7 48.3 20.7 48.4 21"/>
								<path class="st5" d="m66.5 63.6l1.9 6.7 0.8 0.8 2.8 0.6 1.6-0.9 0.6 0.6 1.9-0.4 1.1-1.3 0.4-3.9 0.4 0.2 0.1-1.1 0.5-0.6h0.5l0.8-1.1 1-0.4 0.4-1.3-0.3-0.3-1.1 0.5-1.4 1.1-0.9 2-0.6 2-2.4 4.1-0.3-0.2 0.1-0.9 2.2-3.1 0.3-1.2-1 0.1-0.1-0.6 1.1-0.1 0.1-1 1.1-1.5 0.3-1.8 2.3-1.5 2.5-1.3 0.7-0.9 0.2-1.7 0.4-0.8 0.5-0.5-0.3-0.3-4.5 3.1-0.6 0.1-0.7-0.9 0.6 1.4v0.6l-0.4 0.1-0.4-0.6-0.7 0.6-0.5 0.1-0.5-1.2-0.2 0.6h-0.3l-0.8-1-0.5-0.3-0.6-2.1h0.3l0.2-0.8 1.3 0.3 1-0.3s0.2-0.8 0.2-0.8l-0.2-0.5-1.4-1.4-0.3-1.1-0.9-0.6-0.6-1.6h-0.5l-1-1.5v0.7l0.3 0.2v0.6l0.4 0.3-0.3 0.9-0.6 1.5-0.3-0.8-0.3-0.1 0.1 0.7-0.6-0.7-0.7 0.5-0.1 0.4-0.5-0.3 0.4-0.6-0.7-1.1-0.7 0.3-0.2-0.3 0.6-0.6-0.3-0.9h-0.9l-0.4 0.3-0.7-0.3 0.2-0.7-0.9 0.3v-0.5h-0.9l-0.6 0.7-1.5-0.3-1 0.5 1.1 1.2s-0.6 1.3-0.3 1.3 0.8 0.3 0.8 0.3l0.2 0.6h0.3v0.7l-0.3 1.7 1.7 0.9 0.8 1.5-0.1 1.9s-1.6 1.8-1.5 2c0.1 0.1 1 1.2 1 1.2l0.2 1.2 0.8 0.7-0.2 0.8 0.5 1-0.2 0.6-0.8-0.5z"/>
								<path class="st4" d="m64.8 55.7c0 0.1-0.2 1.2-0.2 1.2l-0.4-0.4 0.6-0.8z"/>
								<polygon class="st4" points="63.9 61.9 64.2 61.5 64.8 61.5 64.9 62"/>
								<polygon class="st4" points="80.7 60.1 81.3 59.6 83 59.6 82.6 60.1 81.1 60.4"/>
								<path class="st4" d="m72.9 45.5l0.8 1.5h0.6l0.7 1.7 1 0.7 0.3 1.1 1.1 1.1 0.3 0.6-0.3 1-0.7 0.5h-1l-0.5-0.1v0.7h-0.3l0.4 1.3 1.2 1.2 0.2-0.6 0.6 1.2h0.4l0.4-0.5s0.8 0.6 0.8 0.5-0.6-1.6-0.6-1.6l0.3-0.4 0.4 0.3s0.1 0.5 0.1 0.5l0.4 0.3 0.5-0.3 4.2-3h0.5l0.5 0.5 0.3-1.6-0.7-0.3 0.2-0.5-1.3-1-0.3 0.1 0.1 1.1-0.6 0.2-0.1-1h-0.3l-1.2 2.7-0.3-0.5-0.9 0.1-0.1-0.3 0.8-0.4s0.9-0.8 0.8-0.8-0.4 0-0.4 0l1-1.7h-0.4l-0.7 0.6-0.5-0.2-0.2 0.3-0.5-0.1-0.1 0.4-0.3 0.4-0.3-0.2 0.1-0.7-1.2-0.7-0.3 0.4-0.1-0.3-0.4 0.1 0.1-0.3-0.4-0.1v-0.3l0.3-0.3-0.1-0.3-0.8 0.2-0.2-0.2 0.1-0.5-0.3-0.1-0.2 0.3h-0.4l0.1-0.6-0.4 0.4-0.2-0.3 0.1-0.7-0.7-0.3v-0.4l-0.6 0.1-0.8-0.9z"/>
								<path class="st4" d="m86.1 52.9l-0.5 0.7v1.4h0.2l0.2 2-0.2 0.3 0.7 0.5-0.3 0.2-0.1 0.8 0.3-0.2-0.3 1.5 0.5 0.3 0.4-0.8h0.4v-0.5h0.4l1-1 0.7 0.1s-0.3-0.3-0.2-0.3 0.9-0.3 0.9-0.3l-0.6 1.6 0.6-0.3v-0.9s0.2-0.5 0.2-0.5l0.1-0.3-0.2-0.2 0.6 0.1 0.2 1 0.1-0.1v-0.8h0.3l0.3 0.5v-1.5l-0.4 0.3h-0.2l-0.1-0.1-0.1 0.4-0.5-0.1-0.1-1.3-0.3 0.6h-0.4v-0.5h-0.3v-0.4l0.3-0.4-0.6-0.1-0.6 0.9 0.2 0.9-0.5 0.1-0.1-0.7-0.6 0.1-0.2-0.3 0.2-0.6h-0.6v1.1h-0.3l-0.3-0.7 0.1-1.9-0.4 0.1 0.1-0.7z"/>
								<polygon class="st4" points="78.3 66.2 78.5 65 78.7 64.7 79.3 64.7 80 63.9 81.1 63.8 81.5 63.4 81.3 64.4 81.5 64.8 81.8 64.4 82.4 65.3 83 65.4 82.9 65.9 82.5 66.3 81.6 68.1 81.1 67.9 80.9 68.3 80.3 67.8 79.8 66.2 79.1 65.4 78.8 65.6"/>
								<path class="st4" d="m82.7 64.4l0.3 0.2 1.2-0.3 0.2 0.3s0.2-1 0.2-1l-1.4 0.7h-0.5z"/>
								<polygon class="st4" points="85.8 62 85.5 63 85.8 64.3 86.2 64.4 86.8 63.4 87 62.9 86.6 63.1 86.3 63.5 86.1 63.5"/>
								<path class="st4" d="m83.3 65.3c-0.1 0.1-0.3 1.3-0.3 1.3l1.4-0.7v0.3l-1.7 1.3v0.9h-0.3l0.5 1.4 0.7-0.3 0.4-0.7-0.1-0.9 0.2-0.7h0.3l1.3-1.3 0.3-1.3-0.4-0.3-1.2 1.1-1.1-0.1z"/>
								<polygon class="st4" points="80.8 52.6 81.2 52.7 81.7 52"/>
								<path class="st5" d="m20.5 44.5s7.4 4.4 12.6 5.9l-2.6 8.7v1.8l0.8 0.8 0.6 1.6 1.8 3 0.5 2.6-7.2-1.8-1.1-0.6 0.3-0.7-0.1-0.3-0.4 0.2-0.5-0.3 0.4 0.1v-0.8l-0.2-0.1-0.2 0.3h-0.4v-0.5l0.4-0.2v-0.2l-0.3-0.2 0.2-0.5h-0.3l-0.4 0.3-0.5-0.3 0.1-0.3h0.5v-0.2h-0.4l-0.2-0.5h-0.4l-0.3 0.1 0.3-0.2-0.2-0.2-0.2-0.1 0.1-0.6 0.4-0.1v-0.3h-0.6s0.2-0.4 1-0.4v-0.5l0.3-0.2v-0.2h-0.3l-0.8 0.4v-0.3l-0.2-0.2 0.5-0.4-0.1-0.3-0.4-0.4v-0.1l0.2-0.5 0.1 0.2h0.3v-0.3l-0.3-0.3 0.2-0.1v-0.3h-0.4l-0.4 0.4-0.3-1s0.3-0.1 0.3-0.1 0-0.3 0-0.3h-0.3v-0.2l0.6-0.5h0.5l-0.1-0.3 0.3-0.2-0.1-0.4-0.4 0.4 0.4-0.9-0.1-0.8s-0.7-0.9-0.7-0.9l0.1-3.8-0.4-1 0.2-1.2-0.7-0.2h-0.6l-0.6 0.3-0.3-1.8z"/>
								<path class="st4" d="m20.1 55.3l-0.3 0.7 0.3 0.2-0.1 0.3h0.5l0.5-0.5-0.4 0.2h-0.3l-0.1-0.3 0.3-0.1-0.4-0.5z"/>
								<path class="st4" d="m19.9 56.9h0.5s-0.4 0.5 0 1.5c0 0-0.4-0.2-0.3-1.2l-0.2-0.3z"/>
								<polygon class="st4" points="22.8 58.3 22.8 59.1 22.5 58.6"/>
								<path class="st4" d="m23 60.2v0.3l0.7-0.3v-0.2l-0.7 0.2z"/>
								<path class="st4" d="m22.2 62.2v0.2l0.5 0.3v0.2h-0.5l0.1 0.2 0.6 0.2v0.3l-0.2 0.2 0.7 0.7v1l0.3 0.4 0.5 0.1s0.1-0.1 0.1 0-0.1 0.4-0.1 0.4l-0.1 0.1 0.9 0.8 0.2-0.3-0.2-0.8-0.7-0.9s-0.7-1.5-0.6-1.5l-0.8-1.1-0.7-0.5z"/>
								<path class="st4" d="m34.5 69.1c0-0.1-0.5-2.9-0.5-2.9s-1.8-2.9-1.8-3-0.5-1.7-0.5-1.7l-0.8-0.7v-1.3l2.6-8.8s4.4 1.4 7 1.8l-2.2 17.3-3.8-0.7z"/>
							<path class="st4" d="m46.5 53.1v17.4s3.7 0.7 5.9-0.2l-0.3-5.9 4.6-7-1.4-0.4-1.7 0.7 0.2-0.8-1.2-2.1h-0.3v0.4l-0.8-0.9v-1.4c0.1-0.1-3.1 0.2-5 0.2z"/>
								<path class="st0" d="m40.7 52.5s4 0.5 5.6 0.5v17.5s-5.1-0.1-7.9-0.8l2.3-17.2z"/>
								<path class="st0" d="m52.8 70c0-0.1-0.4-5.4-0.3-5.6s4.6-7 4.6-7h0.5l0.6 0.8 1.7 0.3 0.4 1 1.2-0.8 1.1 0.1 0.2 1.3 0.6 0.8v0.9l0.7 1-0.3 0.6 1.1-0.1 0.5 1.2 1.1 0.2 1.7 5.7s0.8 1 0.9 1 3.1 0.6 3.1 0.6l1.4-0.9 0.3 0.5-0.7 0.7-0.7 1.2-1.2 0.8 0.6 0.3-0.4 0.4-0.4-0.5-1.4 0.9-0.6 1.2h0.9l-0.2 0.3-0.8 0.5-0.1 0.5h-0.9l-0.9 1.1-0.8 0.7-0.2-0.4 0.8-0.5-0.2-0.5 0.6-1.2-0.2-2.7 1.1 0.7 0.3-0.3-0.2-0.7 0.6 0.1v-0.3l-0.7-0.1v-0.6l-1.1-0.8-0.9 0.3h-1.1l-1.7 0.2-0.1-0.7-0.7-0.8v-0.8l-0.5-0.2-0.1 0.1-1.1-1-1.3-0.1-0.9 0.5 0.2 0.6h-0.5v0.7l-3-0.2-0.8-0.6h-0.5l-0.1 0.6-0.9-0.3 0.7-0.7-0.6-0.3 0.7-0.3-0.7-1-0.4 1.6z"/>
						<path class="st4" d="m19.5 42.8c0 0.1 0.4 0.9 0.4 0.9h1l-0.2 0.4s4.5 3.6 9.4 5v-0.7l-0.8-0.4-0.5-0.8c0.1-0.2-0.7-2.7-0.7-2.7l0.5-2.6-0.6-1.4v-0.7l0.6-0.6v-0.6l-0.4-0.4 0.4-0.7v-0.9l-0.7-0.3v-0.5l1.5-2.4-0.6-0.5-0.6-1.9-0.5 0.1-6.8 10.3-1.4 1.4z"/>
							<path class="st0" d="m29.5 33.7l-1.3 2.3 0.6 0.3v1l-0.3 0.7v0.3l0.3 0.3v0.6l-0.4 0.7-0.2 0.7 0.6 1.1-0.4 2.8 0.7 2.6 0.3 0.7 0.8 0.2 0.2 0.5v1s9 3.6 15.8 3.3c0 0 0.7-5.4 0.3-6.1l-0.6-0.7-3.9-1-0.7-1.5-1-0.2-2.1-2.6-1.7-2-0.2-0.7 0.7-1.8 0.8-0.1-1.1-0.8-0.9 0.3h-0.3v-0.9l-0.5 0.6-0.5-0.2-0.1-2-0.6 0.8h-1.3l-0.5 0.5-0.1-0.5-1.2 0.6-0.1-0.5 0.9-0.4 1.8-0.3h-1.7l-0.9 0.1v-0.3l0.3-0.4h-0.6l-0.7 0.5 0.1 0.7-0.3 0.2v-0.4z"/>
				</g>
				<path class="st3" d="m50.2 55.2c0 3.9-4 10.2-5.5 12.4-0.3 0.4-0.9 0.4-1.1 0-1.6-2.2-5.6-8.5-5.6-12.4 0-4.8 2.7-7.5 6-7.5s6.2 2.7 6.2 7.5z"/>
				<path class="st3" d="m44.1 68.4c-0.4 0-0.8-0.2-1-0.5-1.7-2.5-5.6-8.8-5.6-12.7 0-4.7 2.7-8 6.5-8s6.5 3.3 6.5 8c0 4-3.9 10.2-5.6 12.7 0 0.4-0.4 0.5-0.8 0.5zm0-20.2c-3.3 0-5.5 2.8-5.5 7 0 3.8 4.1 10.3 5.4 12.2 0 0.1 0.1 0.1 0.2 0.1 0 0 0.1 0 0.2-0.1 1.3-1.9 5.4-8.4 5.4-12.2-0.1-4.2-2.4-7-5.7-7z"/>
			<circle class="st1" cx="44.1" cy="54" r="3.3"/>
				<path class="st3" d="m78.8 41.6c0 3.9-4 10.2-5.5 12.5-0.3 0.4-0.9 0.4-1.1 0-1.5-2.3-5.5-8.6-5.5-12.5 0-4.8 2.7-7.5 6.1-7.5s6 2.7 6 7.5z"/>
				<path class="st3" d="m72.7 54.8c-0.4 0-0.8-0.2-1-0.5-1.7-2.5-5.6-8.8-5.6-12.7 0-4.7 2.7-8 6.6-8s6.6 3.3 6.6 8c0 4-3.9 10.2-5.6 12.7-0.2 0.3-0.6 0.5-1 0.5zm0-20.3c-3.3 0-5.6 2.8-5.6 7 0 3.8 4.1 10.3 5.4 12.2 0.1 0.1 0.2 0.1 0.3 0 1.3-1.9 5.4-8.4 5.4-12.2 0.1-4.1-2.2-7-5.5-7z"/>
			<circle class="st1" cx="72.7" cy="40.4" r="3.3"/>
				<path class="st3" d="m33.2 37.4c0 3.9-4 10.2-5.5 12.5-0.3 0.4-0.9 0.4-1.1 0-1.6-2.3-5.6-8.6-5.6-12.5 0-4.8 2.7-7.5 6.1-7.5s6.1 2.8 6.1 7.5z"/>
				<path class="st3" d="m27.1 50.7c-0.4 0-0.8-0.2-1-0.5-1.7-2.5-5.6-8.8-5.6-12.7 0-4.7 2.7-8 6.6-8s6.5 3.3 6.5 8c0 4-3.9 10.2-5.6 12.7-0.1 0.3-0.5 0.5-0.9 0.5zm0-20.3c-3.3 0-5.6 2.8-5.6 7 0 3.8 4.1 10.3 5.4 12.2 0.1 0.1 0.2 0.1 0.3 0 1.3-1.9 5.4-8.4 5.4-12.2 0.1-4.2-2.2-7-5.5-7z"/>
			<circle class="st1" cx="27.1" cy="36.3" r="3.3"/>
</svg>
