
<svg version="1.1" id="Layer_1" xmlns="http://www.w3.org/2000/svg" xmlns:xlink="http://www.w3.org/1999/xlink" x="0px" y="0px"
	 viewBox="0 0 125 100" style="enable-background:new 0 0 125 100;" xml:space="preserve">
<style type="text/css">
	.st0{fill:#F4E8DF;}
	.st1{fill:#FFFFFF;}
	.st2{fill:#EF4D33;}
	.st3{fill:#F59375;}
	.st4{fill:#F4D3BD;}
	.st5{fill:none;stroke:#EF4D33;stroke-miterlimit:10;}
	.st6{clip-path:url(#SVGID_2_);}
</style>
<g id="Layer_5">
	<g>
		<path class="st0" d="M33.3,8.8c19.9-4.8,81.4-1.2,85.6,41c2.9,29.3-9.8,33.1-33.4,39.8C64.9,95.4,43,99.8,35.2,100
			c-17,0.4-32.8-15.3-35-46.7C-1.8,26.6,15.6,13.1,33.3,8.8z"/>
		<path class="st1" d="M21.9,89.1c-3.9,0-7-0.4-7-4.3V73.9c0-1.8,0.7-3.5,1.9-4.8c0-0.2,0-0.3,0-0.5V67c0-2.8,2.2-5,5-5h6.6
			c2.8,0,5,2.2,5,5v1.6c0,0.2,0,0.3,0,0.5c1.2,1.3,1.9,2.9,1.9,4.8v10.7c0.1,1.9-0.4,3-1.6,4.3c-1.3,1.4-3.3,0.2-5.4,0.2
			C28.1,89.1,21.9,89.1,21.9,89.1z"/>
		<g>
			<path class="st1" d="M9.6,90c-1.9,0-3.5-1.6-3.5-3.5s1.6-3.5,3.5-3.5h9.7c2,0,3.5,1.6,3.5,3.5S21.3,90,19.3,90H9.6z"/>
			<path class="st1" d="M19.3,86.1H9.6c-0.2,0-0.4,0.2-0.4,0.4c0,0.2,0.2,0.4,0.4,0.4h9.7c0.2,0,0.4-0.2,0.4-0.4
				C19.7,86.3,19.5,86.1,19.3,86.1z"/>
			<path class="st1" d="M6,90c-1.9,0-3.5-1.6-3.5-3.5S4,82.9,6,82.9h18.3c-0.1-0.5-0.2-51.7-0.2-51.7v-2.1c0-4.7,3.8-8.5,8.4-8.5
				h28.8L74,33.3v6.5h25c4.4,0,8,3.8,8,8.5v17.5c0,4.7-3.6,8.5-8,8.5H74v6.8c0,0.6-0.1,1.2-0.2,1.8h35.3c1.9,0,3.5,1.6,3.5,3.5
				s-1.6,3.5-3.5,3.5H6z"/>
			<path class="st1" d="M99,42.9H70.8v-8.3L60.1,23.9H32.5c-2.9,0-5.3,2.4-5.3,5.3v6.3v42.3v3.5c0,2.2,1.4,4.1,3.3,4.9h-8
				c-0.2,0-0.4,0.2-0.4,0.4c0,0.2,0.2,0.4,0.4,0.4h63.1c0.2,0,0.4-0.2,0.4-0.4c0-0.2-0.2-0.4-0.4-0.4H67.5c1.9-0.8,3.3-2.7,3.3-4.9
				v-10H99c2.7,0,4.9-2.4,4.9-5.4V48.3C103.9,45.3,101.7,42.9,99,42.9z"/>
		</g>
		<path class="st2" d="M15.1,87H9.5C9.2,87,9,86.8,9,86.5S9.2,86,9.5,86h5.6c0.3,0,0.5,0.2,0.5,0.5S15.4,87,15.1,87z"/>
		<path class="st2" d="M85.4,87H22.4c-0.3,0-0.5-0.2-0.5-0.5s0.2-0.5,0.5-0.5h63.1c0.3,0,0.5,0.2,0.5,0.5S85.7,87,85.4,87z"/>
		<path class="st2" d="M53.2,66.9H33.5c-0.3,0-0.5-0.2-0.5-0.5s0.2-0.5,0.5-0.5h19.7c0.3,0,0.5,0.2,0.5,0.5S53.5,66.9,53.2,66.9z"/>
		<path class="st3" d="M64.3,75.9H49.8c-0.3,0-0.5-0.2-0.5-0.5s0.2-0.5,0.5-0.5h14.5c0.3,0,0.5,0.2,0.5,0.5S64.6,75.9,64.3,75.9z"/>
		<path class="st3" d="M64.3,48H57c-0.3,0-0.5-0.2-0.5-0.5S56.8,47,57,47h7.3c0.3,0,0.5,0.2,0.5,0.5S64.6,48,64.3,48z"/>
		<path class="st3" d="M64.3,45.1H57c-0.3,0-0.5-0.2-0.5-0.5s0.2-0.5,0.5-0.5h7.3c0.3,0,0.5,0.2,0.5,0.5S64.6,45.1,64.3,45.1z"/>
		<path class="st2" d="M59.1,63.4H33.5c-0.3,0-0.5-0.2-0.5-0.5s0.2-0.5,0.5-0.5h25.6c0.3,0,0.5,0.2,0.5,0.5S59.4,63.4,59.1,63.4z"/>
		<path class="st2" d="M64.3,60H33.5c-0.3,0-0.5-0.2-0.5-0.5s0.2-0.5,0.5-0.5h30.8c0.3,0,0.5,0.2,0.5,0.5S64.6,60,64.3,60z"/>
		<path class="st2" d="M64.3,56.5H33.5c-0.3,0-0.5-0.2-0.5-0.5s0.2-0.5,0.5-0.5h30.8c0.3,0,0.5,0.2,0.5,0.5S64.6,56.5,64.3,56.5z"/>
		<path class="st2" d="M103.8,87H88.5c-0.3,0-0.5-0.2-0.5-0.5s0.2-0.5,0.5-0.5h15.3c0.3,0,0.5,0.2,0.5,0.5S104,87,103.8,87z"/>
		<path class="st4" d="M27.1,81.3v0.5c0,2.9,2.4,4.7,5.3,4.7h33c2.9,0,5.3-1.7,5.3-4.7v-0.5H27.1z"/>
		<path class="st5" d="M35.4,42.6"/>
		<path class="st2" d="M65.4,87h-33c-3.2,0-5.8-2.6-5.8-5.8v-52c0-3.2,2.6-5.8,5.8-5.8h27.8l11,11v46.8C71.2,84.4,68.6,87,65.4,87z
			 M32.4,24.4c-2.6,0-4.8,2.2-4.8,4.8v52c0,2.7,2.2,4.8,4.8,4.8h33c2.7,0,4.8-2.2,4.8-4.8V34.8L59.8,24.4H32.4z"/>
		<path class="st2" d="M68.4,37.5h-3c-3.7,0-6.8-3-6.8-6.8v-4.3h1v4.3c0,3.2,2.6,5.8,5.8,5.8h3V37.5z"/>
		<g>
			<path class="st2" d="M42.6,47.8h-0.5c-0.8,0-1.5-0.7-1.5-1.5V31.1c0-0.8,0.7-1.5,1.5-1.5h0.5c0.8,0,1.5,0.7,1.5,1.5v15.1
				C44.1,47.1,43.4,47.8,42.6,47.8z"/>
			<path class="st2" d="M33.3,39v-0.5c0-0.8,0.7-1.5,1.5-1.5h15.1c0.8,0,1.5,0.7,1.5,1.5V39c0,0.8-0.7,1.5-1.5,1.5H34.8
				C34,40.5,33.3,39.8,33.3,39z"/>
		</g>
		<g>
			<g>
				<path class="st3" d="M85.7,66.1c-0.1,0-0.2,0-0.3,0.1c-0.3,0.1-0.5,0.3-0.8,0.4c-0.4,0.1-0.8,0.2-1.2-0.1
					c-0.8-0.5-1.2-1.6-0.7-2.4c0.6-1,1.7-0.9,2.6-0.3c0.4,0.2,0.9,0,1-0.4v-2.4v-1.5l0,0v-0.1h0v0.1h-3.9c-0.3-0.1-0.5-0.4-0.5-0.7
					c0-0.1,0-0.2,0.1-0.3c0.2-0.4,0.4-0.8,0.5-1.2c0-0.2-0.1-0.4-0.2-0.7c-0.5-0.8-1.6-1.2-2.4-0.7c-0.5,0.3-0.8,0.8-0.8,1.2
					c0,0.4,0.2,0.9,0.4,1.3c0.1,0.1,0.1,0.3,0.1,0.4c0,0.3-0.2,0.5-0.5,0.6h-2.4h-1.1c0,0,0,0,0,0c-0.3,0.5-0.2,0.8,0.2,1.2
					c0.3,0.2,0.6,0.4,0.8,0.6c0.4,0.4,0.4,0.6,0.1,1.1c-0.3,0.5-0.3,0.6,0.2,0.9c0.1,0.1,0.3,0.2,0.1,0.4c-0.3,0.3-0.2,0.6,0.1,0.8
					c0.3,0.3,0.4,0.7,0.3,1.1c-0.1,0.4-0.1,0.7-0.2,1.1c-0.2,1,0.1,1.4,1,1.7c0.9,0.3,1.8,0,2.8-0.1c0.6-0.1,1.2-0.3,1.8-0.1
					c0.4,0.1,0.6,0.3,0.7,0.8c0.1,0.7,0.3,1.3,0.4,2c0.1,0.5,0.3,0.7,0.8,0.7c0.4,0,1,0,1.7,0v-4.9C86.3,66.3,86,66.1,85.7,66.1z"/>
				<path class="st2" d="M89.7,50.2c0.2,0.4,0.7,0.5,1,0.2c0.7-0.8,1.8-1.1,2.6-0.3c0.7,0.7,0.6,1.9-0.1,2.5
					c-0.4,0.3-0.7,0.4-1.1,0.3c-0.3,0-0.5-0.1-0.8-0.2c-0.1,0-0.2,0-0.3,0c-0.3,0-0.6,0.3-0.6,0.6l0.5,2.3l0,0l0.4,1.5l0,0l0,0l0,0
					h0l3.9-0.9c0.4,0,0.7,0.4,0.6,0.8c-0.2,0.7-0.4,1.4,0.2,2c0.7,0.7,1.8,0.8,2.5,0.1c0.9-0.8,0.5-1.9-0.3-2.6
					c-0.3-0.3-0.2-0.8,0.1-1l2.4-0.6c0.1-0.9,0.1-1.7,0-2.5c-0.4-2.1-1.2-3.7-2.5-4.8c-2.6-2.4-5.6-3-8.8-2.5
					c-0.3,0-0.6,0.1-0.9,0.2l0.6,2.6L89.7,50.2z"/>
				<path class="st4" d="M93.7,71.5c0.6,0,0.3-0.4,0-0.9c-2.2-4.5,0.4-8.2,0.8-8.7c0.6-0.8,1.1-1.6,1.4-2.5h-2.4
					c-0.4,0.1-0.6,0.6-0.3,1c0.6,0.9,0.7,2-0.3,2.6c-0.8,0.5-2,0.2-2.4-0.7c-0.4-0.7-0.1-1.3,0.3-2c0.2-0.4,0-0.8-0.3-0.9h-4v3.7
					c0,0,0,0.1,0,0.2v0c-0.1,0.4-0.6,0.6-1,0.4c-0.9-0.6-2-0.7-2.6,0.3c-0.5,0.8-0.1,2,0.7,2.4c0.4,0.2,0.8,0.2,1.1,0.1
					c0.3-0.1,0.5-0.2,0.8-0.4c0.1-0.1,0.2-0.1,0.3-0.1c0.3-0.1,0.6,0.1,0.7,0.5v0c0,0.1,0,0.1,0,0.2v4.7
					C89,71.5,92.9,71.6,93.7,71.5z"/>
				<path class="st4" d="M89.9,52.9c-0.6-1-1.7-0.9-2.6-0.3c-0.4,0.2-0.9,0-1-0.4c0,0,0-0.1,0-0.2v-4.9c-1.3,0.1-2.6,0.5-3.9,1.1
					c-0.3,0.2-0.7,0.3-1,0.5C79.2,50,77.9,52,78,54.9c0.1,1.6-0.7,2.8-1.7,3.8c-0.2,0.2-0.4,0.4-0.6,0.6c0,0,0,0.1-0.1,0.1h1.1h2.4
					c0.3-0.1,0.5-0.3,0.5-0.6c0-0.1,0-0.2-0.1-0.3c-0.3-0.4-0.4-0.9-0.4-1.4c0-0.5,0.2-0.9,0.8-1.2c0.8-0.5,2-0.2,2.4,0.7
					c0.1,0.2,0.2,0.5,0.2,0.7c0,0.4-0.2,0.9-0.5,1.3c-0.1,0.1-0.1,0.2-0.1,0.3c0,0.3,0.2,0.6,0.5,0.7h3.9v-0.1v-3.7c0,0,0-0.1,0-0.2
					c0.1-0.3,0.4-0.5,0.7-0.5c0.1,0,0.2,0,0.3,0.1c0.3,0.1,0.5,0.3,0.8,0.4c0.4,0.1,0.8,0.2,1.2-0.1C90.1,54.9,90.4,53.7,89.9,52.9z
					"/>
			</g>
			<path class="st2" d="M96.2,72H74.8c-0.3,0-0.5-0.2-0.5-0.5s0.2-0.5,0.5-0.5h21.4c4.1,0,7.5-3.4,7.5-7.5V50.4
				c0-4.1-3.4-7.5-7.5-7.5H74.8c-0.3,0-0.5-0.2-0.5-0.5s0.2-0.5,0.5-0.5h21.4c4.7,0,8.5,3.8,8.5,8.5v13.1
				C104.7,68.2,100.9,72,96.2,72z"/>
		</g>
		<g>
			<g>
				<defs>
					<polygon id="SVGID_1_" points="30.2,86.6 17.1,87.2 17.1,62.2 27.1,62.2 27.6,83.8 					"/>
				</defs>
				<clipPath id="SVGID_2_">
					<use xlink:href="#SVGID_1_"  style="overflow:visible;"/>
				</clipPath>
				<g class="st6">
					<path class="st2" d="M26.8,87h-6.3c-1.7,0-3-1.3-3-3V73.1c0-1.7,1.3-3,3-3h6.3c1.7,0,3,1.3,3,3V84C30,86,28.5,87,26.8,87z"/>
					<path class="st2" d="M24.9,79.2h-2.4c-1,0-1.8-0.8-1.8-1.8v-8.6c0-1,0.8-1.8,1.8-1.8h2.4c1,0,1.8,0.8,1.8,1.8v8.6
						C26.7,78.4,25.9,79.2,24.9,79.2z"/>
					<path class="st2" d="M27,68.8h-6.6c-0.5,0-1-0.4-1-1v-1.6c0-0.6,0.5-1,1-1H27c0.5,0,1,0.4,1,1v1.6C28,68.4,27.5,68.8,27,68.8z"
						/>
				</g>
			</g>
		</g>
	</g>
</g>
</svg>
