
<svg version="1.1" id="Layer_1" xmlns="http://www.w3.org/2000/svg" xmlns:xlink="http://www.w3.org/1999/xlink" x="0px" y="0px"
	 viewBox="0 0 125 100" style="enable-background:new 0 0 125 100;" xml:space="preserve">
<style type="text/css">
	.st0{fill:#F4E8DF;}
	.st1{fill:#FFFFFF;}
	.st2{fill:#EF4D33;}
	.st3{fill:#F59375;}
	.st4{fill:#F4D3BD;}
</style>
<g id="Layer_8">
	<g>
		<path class="st0" d="M26.1,10.4c19.9-4.8,82-4,87.9,29.8c5.1,29-6.7,41.5-26.3,49.5c-19.8,8-42.4,10.2-50.3,10.4
			c-17,0.4-34.9-13.4-37.2-44.8C-1.7,28.6,8.4,14.7,26.1,10.4z"/>
		<path class="st1" d="M87,20.6H48.3c-4.4,0-8,3.6-8,8V42H18.8c-2.9,0-5.2,2.3-5.2,5.2v21.4c0,2.9,2.3,5.2,5.2,5.2h1.4V86
			c0,0.7,0.8,1.1,1.3,0.7l18.7-12.9h12c2.9,0,5.2-2.3,5.2-5.2v-8.9h3.8l24,16.6c0.6,0.4,1.3,0,1.3-0.7V59.7H87c4.4,0,8-3.6,8-8V28.6
			C95,24.1,91.4,20.6,87,20.6z"/>
		<path class="st2" d="M59.7,41.3h-6.6c-2.2,0-4-1.8-4-4v-6.6c0-2.2,1.8-4,4-4h6.6c2.2,0,4,1.8,4,4v6.6
			C63.7,39.5,61.9,41.3,59.7,41.3z"/>
		<path class="st2" d="M85.6,29.3h-10c-0.3,0-0.5-0.2-0.5-0.5s0.2-0.5,0.5-0.5h10c0.3,0,0.5,0.2,0.5,0.5S85.8,29.3,85.6,29.3z"/>
		<path class="st2" d="M85.6,34.5h-10c-0.3,0-0.5-0.2-0.5-0.5s0.2-0.5,0.5-0.5h10c0.3,0,0.5,0.2,0.5,0.5S85.8,34.5,85.6,34.5z"/>
		<path class="st3" d="M88.1,46.5H48.7c-0.3,0-0.5-0.2-0.5-0.5s0.2-0.5,0.5-0.5h39.4c0.3,0,0.5,0.2,0.5,0.5S88.3,46.5,88.1,46.5z"/>
		<path class="st3" d="M88.1,51H48.7c-0.3,0-0.5-0.2-0.5-0.5s0.2-0.5,0.5-0.5h39.4c0.3,0,0.5,0.2,0.5,0.5S88.3,51,88.1,51z"/>
		<path class="st2" d="M85.7,77c-0.3,0-0.5-0.1-0.8-0.2l-18-12.5c-0.2-0.2-0.3-0.5-0.1-0.7c0.2-0.2,0.5-0.3,0.7-0.1l18,12.5
			c0.2,0.1,0.3,0.1,0.3,0c0.1,0,0.2-0.1,0.2-0.3V63.8c0-0.3,0.2-0.5,0.5-0.5s0.5,0.2,0.5,0.5v11.8c0,0.5-0.3,0.9-0.7,1.2
			C86.1,76.9,85.9,77,85.7,77z"/>
		<path class="st2" d="M21,87.4c-0.2,0-0.4-0.1-0.6-0.2C20,87,19.7,86.5,19.7,86v-9c0-0.3,0.2-0.5,0.5-0.5s0.5,0.2,0.5,0.5v9
			c0,0.2,0.1,0.3,0.2,0.3s0.2,0.1,0.3,0l13.5-9.4c0.2-0.2,0.5-0.1,0.7,0.1s0.1,0.5-0.1,0.7l-13.5,9.4C21.6,87.3,21.3,87.4,21,87.4z"
			/>
		<path class="st4" d="M41.5,56c0.6,2.1,2.5,3.7,4.8,3.7h42.8c2.3,0,4.2-1.6,4.8-3.7H41.5z"/>
		<path class="st2" d="M87,60.2H48.3c-4.7,0-8.5-3.8-8.5-8.5V28.6c0-4.7,3.8-8.5,8.5-8.5H87c4.7,0,8.5,3.8,8.5,8.5v23.2
			C95.5,56.4,91.7,60.2,87,60.2z M48.3,21.1c-4.1,0-7.5,3.4-7.5,7.5v23.2c0,4.1,3.4,7.5,7.5,7.5H87c4.1,0,7.5-3.4,7.5-7.5V28.6
			c0-4.1-3.4-7.5-7.5-7.5H48.3z"/>
		<path class="st4" d="M14,45.2c0,0,3.6,1.3,6.6,5.1S27.3,63.7,32.9,68c4.4,3.4,7.9,5.8,7.9,5.8H18.5l-2.8-1.1l-1.8-2.6l-0.2-1.9
			l0.1-22L14,45.2z"/>
		<path class="st2" d="M52.2,74.3H18.8c-3.1,0-5.7-2.6-5.7-5.7V47.2c0-3.1,2.6-5.7,5.7-5.7h16.7c0.3,0,0.5,0.2,0.5,0.5
			s-0.2,0.5-0.5,0.5H18.8c-2.6,0-4.7,2.1-4.7,4.7v21.4c0,2.6,2.1,4.7,4.7,4.7h33.4c2.6,0,4.7-2.1,4.7-4.7v-3.3
			c0-0.3,0.2-0.5,0.5-0.5s0.5,0.2,0.5,0.5v3.3C57.9,71.8,55.3,74.3,52.2,74.3z"/>
		<path class="st2" d="M63.8,85.7H41.2c-0.3,0-0.5-0.2-0.5-0.5s0.2-0.5,0.5-0.5h22.6c0.3,0,0.5,0.2,0.5,0.5S64.1,85.7,63.8,85.7z"/>
		<path class="st1" d="M41.2,89.7c-2.5,0-4.5-2-4.5-4.5s2-4.5,4.5-4.5h62.6c2.5,0,4.5,2,4.5,4.5s-2,4.5-4.5,4.5H41.2z"/>
		<path class="st2" d="M63.8,85.7H41.2c-0.3,0-0.5-0.2-0.5-0.5s0.2-0.5,0.5-0.5h22.6c0.3,0,0.5,0.2,0.5,0.5S64.1,85.7,63.8,85.7z"/>
		<path class="st2" d="M95,85.7H74.5c-0.3,0-0.5-0.2-0.5-0.5s0.2-0.5,0.5-0.5H95c0.3,0,0.5,0.2,0.5,0.5S95.3,85.7,95,85.7z"/>
		<path class="st2" d="M72.3,85.7h-4.6c-0.3,0-0.5-0.2-0.5-0.5s0.2-0.5,0.5-0.5h4.6c0.3,0,0.5,0.2,0.5,0.5S72.5,85.7,72.3,85.7z"/>
		<path class="st3" d="M30.3,61h-4.9c-2.2,0-3.9-1.8-3.9-3.9v-4.9c0-2.2,1.8-3.9,3.9-3.9h4.9c2.2,0,3.9,1.8,3.9,3.9v4.9
			C34.2,59.3,32.4,61,30.3,61z"/>
	</g>
</g>
</svg>
