<?xml version="1.0" encoding="UTF-8"?>
<svg enable-background="new 0 0 125 100" version="1.1" viewBox="0 0 125 100" xml:space="preserve" xmlns="http://www.w3.org/2000/svg" xmlns:xlink="http://www.w3.org/1999/xlink">
<style type="text/css">
	.st0{fill:#F4E8DF;}
	.st1{fill:#FFFFFF;}
	.st2{fill:#EF4D33;}
	.st3{fill:#F4D3BD;}
	.st4{fill:#F59375;}
	.st5{fill:none;stroke:#EF4D33;stroke-miterlimit:10;}
	.st6{clip-path:url(#a);}
</style>
		<path class="st0" d="m23.7 10.3c22.3-6 91.8 9.4 100.2 42.2 5.5 21.5-17.6 26.2-37.1 34.1s-41.2 13.2-49 13.4c-16.8 0.4-35.1-7.7-37.3-38.8-1.9-26.3 6.8-46.5 23.2-50.9z"/>
			<path class="st1" d="M4,89.7c-1.9,0-3.5-1.6-3.5-3.5s1.6-3.5,3.5-3.5h5c1.9,0,3.5,1.6,3.5,3.5s-1.6,3.5-3.5,3.5H4z"/>
			<path class="st1" d="m9 85.8h-5c-0.2 0-0.4 0.2-0.4 0.4s0.2 0.4 0.4 0.4h5c0.2 0 0.4-0.2 0.4-0.4-0.1-0.2-0.2-0.4-0.4-0.4z"/>
			<path class="st1" d="m10.8 89.7c-1.9 0-3.5-1.6-3.5-3.5 0-1 0.4-1.9 1.1-2.5-0.4-0.9-0.6-1.8-0.6-2.8v-14.3c0-2.2 1-4.2 2.7-5.5v-4c0-2.1 1-4.1 2.7-5.3 0.7-1.3 2.1-2.1 3.7-2.1h2.1c0.7 0 1.4 0.2 1.9 0.5v-19.7c0-5.1 4.2-9.3 9.3-9.3h32.3c5.1 0 9.3 4.2 9.3 9.3v1.1h26.5c4.5 0 8.1 3.6 8.1 8.1v1.7h0.2c4.5 0 8.1 3.6 8.1 8.1v16.2c0 4.5-3.6 8.1-8.1 8.1h-34.8v6.1c0 1-0.2 2-0.5 2.9h35.5c1.9 0 3.5 1.6 3.5 3.5s-1.6 3.5-3.5 3.5l-96-0.1zm7.6-30.1v-1.3h-0.9v1.3h0.9z"/>
			<path class="st1" d="m106.6 44.5h-3.3v-4.8c0-2.8-2.2-5-5-5h-29.6v-4.2c0-3.4-2.8-6.2-6.2-6.2h-32.3c-3.4 0-6.2 2.8-6.2 6.2v33.7c-0.5-0.6-1.1-1-1.8-1.2v-5.8c0-1.5-0.9-2.7-2.1-3.2 0-0.6-0.5-1.1-1.1-1.1h-2.2c-0.6 0-1.1 0.5-1.1 1.1-1.3 0.5-2.1 1.8-2.1 3.2v5.8c-1.5 0.5-2.6 2-2.6 3.7v14.3c0 1.4 0.8 2.7 2 3.4-0.1 0.1-0.1 0.3-0.1 0.5v0.1c0 0.4 0.3 0.8 0.6 1h-2.6c-0.2 0-0.4 0.2-0.4 0.4s0.2 0.4 0.4 0.4h65c0.2 0 0.4-0.2 0.4-0.4s-0.2-0.4-0.4-0.4h-12c2.8-0.6 4.8-3.1 4.8-6v-9.2h37.9c2.8 0 5-2.2 5-5v-16.3c0-2.8-2.2-5-5-5zm-92.2 12.7c0-1.1 0.6-2 1.6-2.5 0.2 0.3 0.5 0.5 0.9 0.5h2.1c0.4 0 0.7-0.2 0.9-0.5 0.9 0.4 1.6 1.4 1.6 2.5v5.6h-0.5-6.2-0.5l0.1-5.6zm0.7 27.6l5.6-0.1v0.1c0 0.4 0.3 0.8 0.6 1h-6.9c0.5-0.1 0.7-0.5 0.7-1zm7.3 1c0.4-0.2 0.6-0.6 0.6-1v-0.1c0-0.2 0-0.3-0.1-0.5 0.8-0.4 1.4-1.1 1.7-1.9 0.8 1.7 2.4 3 4.3 3.4l-6.5 0.1z"/>
			<path class="st2" d="m8.7 87.1h-5c-0.3 0-0.5-0.2-0.5-0.5s0.2-0.5 0.5-0.5h5c0.3 0 0.5 0.2 0.5 0.5s-0.3 0.5-0.5 0.5z"/>
			<path class="st2" d="m75.5 87.1h-65c-0.3 0-0.5-0.2-0.5-0.5s0.2-0.5 0.5-0.5h65c0.3 0 0.5 0.2 0.5 0.5s-0.2 0.5-0.5 0.5z"/>
			<path class="st2" d="m97.8 53.3h-23.6c-0.3 0-0.5-0.2-0.5-0.5s0.2-0.5 0.5-0.5h23.6c0.3 0 0.5 0.2 0.5 0.5s-0.2 0.5-0.5 0.5z"/>
			<path class="st3" d="m105.6 65.4h-23.7c-0.3 0-0.5-0.2-0.5-0.5s0.2-0.5 0.5-0.5h23.6c0.3 0 0.5 0.2 0.5 0.5s-0.2 0.5-0.4 0.5z"/>
			<path class="st2" d="m97.8 49.8h-23.6c-0.3 0-0.5-0.2-0.5-0.5s0.2-0.5 0.5-0.5h23.6c0.3 0 0.5 0.2 0.5 0.5s-0.2 0.5-0.5 0.5z"/>
			<path class="st2" d="m100.9 87.1h-21c-0.3 0-0.5-0.2-0.5-0.5s0.2-0.5 0.5-0.5h21c0.3 0 0.5 0.2 0.5 0.5s-0.3 0.5-0.5 0.5z"/>
					<path class="st4" d="m97.6 41.1l-11.1 3.5h-0.2l-2-0.5c-0.2-0.1-0.3-0.1-0.3-0.3l-0.6-1.8c-0.1-0.2 0.1-0.4 0.3-0.5l0.2-0.1h0.3l1.9 0.6h0.2l9-2.7h0.3l2.1 1c0.2 0.3 0.2 0.7-0.1 0.8z"/>
					<path class="st4" d="m89.7 41.1l-2.6-2c-0.2-0.2-0.2-0.5 0.1-0.7l1.6-0.5h0.3l3.6 2.2c0.3 0.2 0.2 0.6-0.1 0.7l-2.6 0.4c-0.1 0-0.2 0-0.3-0.1z"/>
			<path class="st5" d="m30 38.6"/>
			<path class="st3" d="m98 61.2c2.8 0 5-2.2 5-5v-1.9c-1 2.8-11.3 2.3-18.8 3.1-4.6 0.5-10.6 2.3-12.2 3.8h26z"/>
			<path class="st2" d="m98 61.7h-26.6v-1h26.6c2.5 0 4.5-2 4.5-4.5v-16.2c0-2.5-2-4.5-4.5-4.5h-24.4v-1h24.4c3 0 5.5 2.5 5.5 5.5v16.2c0 3-2.4 5.5-5.5 5.5z"/>
			<path class="st2" d="m106.3 71.5h-31v-1h31c2.5 0 4.5-2 4.5-4.5v-16.2c0-2.5-2-4.5-4.5-4.5h-0.6v-1h0.6c3 0 5.5 2.5 5.5 5.5v16.2c0 3-2.4 5.5-5.5 5.5z"/>
				<path class="st2" d="m59.9 37.7h-27.6c-0.3 0-0.5-0.2-0.5-0.5s0.2-0.5 0.5-0.5h27.6c0.3 0 0.5 0.2 0.5 0.5s-0.2 0.5-0.5 0.5z"/>
				<path class="st2" d="m59.9 34.2h-27.6c-0.3 0-0.5-0.2-0.5-0.5s0.2-0.5 0.5-0.5h27.6c0.3 0 0.5 0.2 0.5 0.5s-0.2 0.5-0.5 0.5z"/>
				<path class="st2" d="m55.5 70.8h-18.8c-0.3 0-0.5-0.2-0.5-0.5s0.2-0.5 0.5-0.5h18.8c0.3 0 0.5 0.2 0.5 0.5s-0.2 0.5-0.5 0.5z"/>
				<path class="st2" d="m55.5 67.3h-18.8c-0.3 0-0.5-0.2-0.5-0.5s0.2-0.5 0.5-0.5h18.8c0.3 0 0.5 0.2 0.5 0.5s-0.2 0.5-0.5 0.5z"/>
				<path class="st3" d="M24.1,82.1v0.5c0,3,5.3,4.1,8.3,4.1h27.5c3,0,8.3-1.1,8.3-4.1v-0.5H24.1z"/>
				<path class="st4" d="m48.3 79.1h-4.5c-0.5 0-1-0.4-1-1v-1.9c0-0.6 0.5-1 1-1h4.5c0.5 0 1 0.4 1 1v1.9c0 0.5-0.4 1-1 1z"/>
				<path class="st2" d="m60.4 86.9h-28.7c-4.7 0-8.5-3.8-8.5-8.5v-45.8c0-4.7 3.8-8.5 8.5-8.5h28.7c4.7 0 8.5 3.8 8.5 8.5v45.8c0 4.7-3.8 8.5-8.5 8.5zm-28.7-61.8c-4.1 0-7.5 3.4-7.5 7.5v45.8c0 4.1 3.4 7.5 7.5 7.5h28.7c4.1 0 7.5-3.4 7.5-7.5v-45.8c0-4.1-3.4-7.5-7.5-7.5h-28.7z"/>
					<path class="st4" d="m39.9 42.7c-0.4 0-0.7 0.3-0.7 0.7v13.9c0 1 0.6 1.9 1.5 2.4l5 2.2c0.2 0.1 0.4 0.1 0.6 0l5-2.2c1-0.4 1.5-1.4 1.5-2.4v-13.8c0-0.4-0.3-0.7-0.7-0.7l-12.2-0.1z"/>
					<path class="st1" d="m46.2 43.8c-0.1-0.1-0.2-0.1-0.2 0-0.3 0.4-0.5 1-0.5 1.6 0 1.4 0.2 2.9 0.2 4.3 0 1.3-0.4 2.6-0.9 3.8-0.2 0.3-0.3 0.6-0.5 0.9 0 0.1-0.1 0.1-0.2 0.1l-0.4-0.1c-0.5-0.1-0.8-0.5-0.7-1 0.1-0.4 0.4-0.7 0.8-0.7 0.1 0 0.2-0.1 0.2-0.2l-0.4-3.3c-0.1-1.6-0.9-2.9-2.1-3.8-0.1-0.1-0.3-0.2-0.4-0.3s-0.2 0-0.2 0.1v12.1c0 0.1 0.1 0.1 0.1 0.1h2.6c0.1 0 0.1 0 0.1 0.1 0.2 1.1 0.9 2.1 1.7 2.8 0.2 0.1 0.3 0.2 0.4 0.4 0.1 0.1 0.2 0.1 0.2 0 0.1-0.2 0.3-0.3 0.4-0.4 0.9-0.7 1.5-1.7 1.7-2.8 0-0.1 0.1-0.1 0.1-0.1h2.6c0.1 0 0.1-0.1 0.1-0.1v-12.1c0-0.1-0.1-0.2-0.2-0.1-0.2 0.1-0.3 0.2-0.4 0.3-1.2 0.9-2 2.3-2.1 3.8l-0.4 3.3c0 0.1 0.1 0.2 0.2 0.2 0.4 0 0.8 0.3 0.8 0.7 0.1 0.5-0.2 0.9-0.7 1l-0.1 0.1c-0.1 0-0.1 0-0.2-0.1-0.2-0.3-0.3-0.6-0.5-0.9-0.5-1.2-0.9-2.5-0.9-3.8 0-1.4 0.2-2.9 0.2-4.3 0.1-0.6-0.1-1.1-0.4-1.6zm-4.4 3.4c0-0.1 0.2-0.2 0.3-0.1 0.4 0.6 0.7 1.3 0.8 2l0.3 2.8c0 0.1 0 0.1-0.1 0.1-0.4 0.2-0.7 0.5-0.8 1 0 0.1-0.1 0.1-0.1 0.1h-0.2c-0.1 0-0.1-0.1-0.1-0.1l-0.1-5.8zm8.6 0v5.8c0 0.1-0.1 0.1-0.1 0.1h-0.3c-0.1 0-0.1 0-0.1-0.1-0.1-0.4-0.4-0.8-0.8-1l-0.1-0.1 0.3-2.8c0.1-0.8 0.4-1.4 0.8-2 0.1-0.1 0.3 0 0.3 0.1zm-4.2 5.8c0.2 0.5 0.4 1.1 0.7 1.6 0 0.1 0 0.2-0.1 0.2-0.3 0.1-0.5 0.3-0.7 0.5-0.1 0.1-0.2 0.1-0.2 0-0.2-0.2-0.4-0.4-0.7-0.5-0.1 0-0.1-0.1-0.1-0.2 0.3-0.5 0.5-1 0.7-1.6 0.2-0.1 0.4-0.1 0.4 0zm-4.3 1h0.2c0.1 0 0.1 0 0.1 0.1 0.2 0.5 0.6 1 1.2 1.1l0.3 0.1c0.1 0 0.1 0.1 0.1 0.2-0.1 0.3-0.1 0.6-0.1 1 0 0.1-0.1 0.1-0.1 0.1h-1.7c-0.1 0-0.1-0.1-0.1-0.1v-2.3c0-0.1 0-0.2 0.1-0.2zm8 0h0.3c0.1 0 0.1 0.1 0.1 0.1v2.3c0 0.1-0.1 0.1-0.1 0.1h-1.7c-0.1 0-0.1-0.1-0.1-0.1 0-0.3-0.1-0.7-0.1-1 0-0.1 0-0.2 0.1-0.2l0.3-0.1c0.6 0 1.1-0.5 1.2-1.1zm-5 1.6c0.4 0.1 0.7 0.5 0.8 0.9 0 0.1-0.1 0.2-0.1 0.2h-0.8c-0.1 0-0.2-0.1-0.1-0.2 0-0.3 0-0.5 0.1-0.8-0.1-0.1 0-0.2 0.1-0.1zm2.6 0.1c0.1 0.3 0.1 0.5 0.1 0.8 0 0.1-0.1 0.2-0.1 0.2h-0.8c-0.1 0-0.2-0.1-0.1-0.2 0.1-0.4 0.4-0.8 0.8-0.9 0-0.1 0.1 0 0.1 0.1zm-2.6 1.8h0.7c0.1 0 0.1 0.1 0.1 0.1v1.3c0 0.1-0.2 0.2-0.3 0.1-0.3-0.4-0.5-0.8-0.7-1.3 0-0.2 0.1-0.2 0.2-0.2zm1.8 0h0.7c0.1 0 0.2 0.1 0.1 0.2-0.1 0.5-0.4 0.9-0.7 1.3-0.1 0.1-0.3 0-0.3-0.1v-1.3c0-0.1 0.1-0.1 0.2-0.1z"/>
						<defs>
							<polygon id="b" points="24 86.6 9.8 86.6 9.8 52.6 24 52.6 24 82.6 24.8 84 24 86.4"/>
						</defs>
						<clipPath id="a">
							<use xlink:href="#b"/>
						</clipPath>
						<g class="st6">
								<path class="st2" d="m19.6 85.2h-4c-2.8 0-5-2.2-5-5v-12.1c0-2.8 2.2-5 5-5h4c2.8 0 5 2.2 5 5v12.1c0 2.7-2.2 5-5 5z"/>
								<path class="st2" d="m17.6 74.6c-2.5 0-4.4-2-4.4-4.4v-11.8c0-2.5 2-4.5 4.4-4.5s4.4 2 4.4 4.5v11.8c0.1 2.4-1.9 4.4-4.4 4.4zm0-19.6c-1.9 0-3.4 1.5-3.4 3.5v11.8c0 1.9 1.6 3.4 3.4 3.4s3.5-1.6 3.5-3.4v-11.9c0-1.9-1.6-3.4-3.5-3.4z"/>
								<path class="st2" d="m13.7 86.3c-0.6 0-1.2-0.5-1.2-1.2 0-0.6 0.5-1.2 1.2-1.2 0.6 0 1.2 0.5 1.2 1.2-0.1 0.7-0.6 1.2-1.2 1.2z"/>
								<path class="st2" d="m18.7 55.5h-2.1c-0.6 0-1.2-0.5-1.2-1.2 0-0.6 0.5-1.2 1.2-1.2h2.1c0.6 0 1.2 0.5 1.2 1.2-0.1 0.7-0.6 1.2-1.2 1.2z"/>
								<path class="st2" d="m21.6 86.3c-0.6 0-1.2-0.5-1.2-1.2 0-0.6 0.5-1.2 1.2-1.2 0.6 0 1.2 0.5 1.2 1.2-0.1 0.7-0.6 1.2-1.2 1.2z"/>
						</g>
			<path class="st3" d="m105.6 67.8h-18c-0.3 0-0.5-0.2-0.5-0.5s0.2-0.5 0.5-0.5h18c0.3 0 0.5 0.2 0.5 0.5s-0.3 0.5-0.5 0.5z"/>
</svg>
