
<svg version="1.1" id="Layer_1" xmlns="http://www.w3.org/2000/svg" xmlns:xlink="http://www.w3.org/1999/xlink" x="0px" y="0px"
	 viewBox="0 0 125 100" style="enable-background:new 0 0 125 100;" xml:space="preserve">
<style type="text/css">
	.st0{fill:#DDDDDD;}
	.st1{fill:#FFFFFF;}
	.st2{clip-path:url(#SVGID_2_);}
	.st3{fill:#AFAFAF;}
	.st4{fill:#7E7E7E;}
	.st5{clip-path:url(#SVGID_4_);}
	.st6{fill:#8E8E8E;}
	.st7{clip-path:url(#SVGID_6_);fill:#AFAFAF;}
</style>
<g id="Layer_13">
	<g>
		<path class="st0" d="M25.9,11.9c21.9-5.8,77.1,2.5,85.4,34.8c5.4,21.1-3,35.9-22,43.6c-19.2,7.8-41.9,10.3-49.5,9.6
			C13.2,97.2,2.4,86.6,0.2,56.1C-1.6,30.4,9.8,16.2,25.9,11.9z"/>
		<path class="st1" d="M8.8,90.3c-2.3,0-4.2-1.9-4.2-4.2s1.9-4.2,4.2-4.2h92.3c2.3,0,4.2,1.9,4.2,4.2s-1.9,4.2-4.2,4.2H8.8z"/>
		<path class="st1" d="M22.8,88.9c-5.4,0-9.8-4.4-9.8-9.8V32.2c0-5.4,4.4-9.8,9.8-9.8h23.7c5.4,0,9.8,4.4,9.8,9.8v5.3
			c1.3,2.2,2.3,3.8,2.4,7.1h4.9c3.5,0,6.6,1.8,8.4,4.7h8.9C80.3,47.5,80,46,80,44.6c0-7.4,4.9-11.3,9.8-11.3s9.8,3.9,9.8,11.3
			c0,2.1-0.7,4.5-2.1,7.5c1.3,1.5,2.1,3.4,2.1,5.5v14.8c0,4.6-3.7,8.3-8.3,8.3H61.8c-2.1,0-4.1-0.8-5.5-2.1v0.6
			c0,5.4-4.4,9.8-9.8,9.8L22.8,88.9L22.8,88.9z"/>
		<path class="st1" d="M92.7,53.3c1.6-2.8,3.2-6.2,3.2-8.6c0-4.8-2.7-7.5-6.1-7.5s-6.1,2.8-6.1,7.5c0,2.4,1.5,5.7,3,8.4H72.4
			c-0.6-2.7-3-4.7-5.9-4.7H57c0.1-0.4,0.1-0.8,0.1-1.1c0-4.1-2-6.7-4.6-7.3v-7.6c0-3.3-2.7-6-6-6H22.8c-3.3,0-6,2.7-6,6v46.9
			c0,3.3,2.7,6,6,6h23.7c3.3,0,6-2.7,6-6v-6.7h4.7c0,2.5,2.1,4.5,4.6,4.5h0.3H83h8.2c2.5,0,4.6-2.1,4.6-4.6V57.6
			C95.8,55.6,94.5,53.9,92.7,53.3z"/>
		<g>
			<g>
				<g>
					<defs>
						<path id="SVGID_1_" d="M46.5,86.1H22.7c-3.3,0-6-2.7-6-6V32.2c0-3.3,2.7-6,6-6h23.8c3.3,0,6,2.7,6,6v47.9
							C52.5,83.4,49.8,86.1,46.5,86.1z"/>
					</defs>
					<clipPath id="SVGID_2_">
						<use xlink:href="#SVGID_1_"  style="overflow:visible;"/>
					</clipPath>
					<g class="st2">
						<path class="st3" d="M15.5,41c2,5,2.9,12,4.9,17.6s3.9,13.8,10.7,16.9s22.2,1.3,22.2,1.3v8.8l-40.6-0.9L15.5,41z"/>
						<g>
							<path class="st4" d="M53.7,33.8h-7.1c-0.3,0-0.5-0.2-0.5-0.5s0.2-0.5,0.5-0.5h6.1v-9.1H15.6v9.1h24.8c0.3,0,0.5,0.2,0.5,0.5
								s-0.2,0.5-0.5,0.5H14.6V22.6h39.1C53.7,22.6,53.7,33.8,53.7,33.8z"/>
							<g>
								<rect x="10.9" y="79.5" class="st1" width="42.4" height="6.1"/>
								<path class="st4" d="M53.7,86.1H10.4V79h43.4C53.7,79,53.7,86.1,53.7,86.1z M11.4,85.1h41.4V80H11.4V85.1z"/>
							</g>
						</g>
					</g>
				</g>
			</g>
		</g>
		<path class="st4" d="M46.5,86.6H22.8c-3.6,0-6.5-3-6.5-6.6V32.3c0-3.6,2.9-6.6,6.5-6.6h23.7c3.6,0,6.5,3,6.5,6.6v4.8
			c0,0.3-0.2,0.5-0.5,0.5S52,37.4,52,37.1v-4.8c0-3.1-2.5-5.6-5.5-5.6H22.8c-3,0-5.5,2.5-5.5,5.6v47.6c0,3.1,2.5,5.6,5.5,5.6h23.7
			c3,0,5.5-2.5,5.5-5.6v-3.6c0-0.3,0.2-0.5,0.5-0.5S53,76,53,76.3v3.6C53,83.6,50.1,86.6,46.5,86.6z"/>
		<g>
			<g>
				<g>
					<defs>
						<path id="SVGID_3_" d="M29.9,66.4V54.3c0-3.3,2.7-6,6-6h27.7c3.3,0,6,2.7,6,6v12.1c0,3.3-2.7,6-6,6H35.9
							C32.6,72.4,29.9,69.8,29.9,66.4z"/>
					</defs>
					<clipPath id="SVGID_4_">
						<use xlink:href="#SVGID_3_"  style="overflow:visible;"/>
					</clipPath>
					<g class="st5">
						<path class="st6" d="M29.8,73.9c-0.6-0.6-0.6-1.5,0-2.1l10.9-11c0.6-0.6,1.5-0.6,2.1,0l11,11c0.6,0.6,0.6,1.5,0,2.1H29.8z"/>
						<path class="st6" d="M70.9,74c-0.6,0.6-4.6,0.6-5.2,0l-11-10.9c-0.6-0.6-0.6-1.5,0-2.1l10.9-11c0.6-0.6,4.6-0.6,5.2,0L70.9,74
							L70.9,74z"/>
						<rect x="28.2" y="69.3" class="st3" width="40.5" height="3.1"/>
						<path class="st6" d="M24.6,43.8c0.6-0.6,1.5-0.6,2.1,0l11,11c0.6,0.6,0.6,1.5,0,2.1l-11,10.9c-0.6,0.6-1.5,0.6-2.1,0V43.8z"/>
					</g>
				</g>
			</g>
		</g>
		<path class="st4" d="M21.6,40.4h-1v-2.9c0-0.9,0.7-1.6,1.6-1.6h2.9v1h-2.9c-0.3,0-0.6,0.3-0.6,0.6V40.4z"/>
		<path class="st4" d="M25.2,76.6h-2.9c-0.9,0-1.6-0.7-1.6-1.6v-2.9h1V75c0,0.3,0.3,0.6,0.6,0.6h2.9V76.6z"/>
		<g>
			<g>
				<path class="st4" d="M54.2,47.2c0,3.9-4,10.2-5.5,12.5c-0.3,0.4-0.9,0.4-1.1,0c-1.5-2.3-5.5-8.6-5.5-12.5c0-4.8,2.7-7.5,6-7.5
					C51.5,39.7,54.2,42.5,54.2,47.2z"/>
				<path class="st4" d="M48.2,60.5L48.2,60.5c-0.4,0-0.8-0.2-1-0.5c-1.7-2.5-5.6-8.8-5.6-12.7c0-4.7,2.7-8,6.5-8s6.5,3.3,6.5,8
					c0,4-3.9,10.2-5.6,12.7C48.9,60.3,48.5,60.5,48.2,60.5z M48.2,40.2c-3.3,0-5.5,2.8-5.5,7c0,3.8,4.1,10.3,5.4,12.2
					c0,0.1,0.1,0.1,0.2,0.1l0,0c0,0,0.1,0,0.2-0.1c1.3-1.9,5.4-8.4,5.4-12.2C53.7,43,51.5,40.2,48.2,40.2z"/>
			</g>
			<circle class="st1" cx="48.2" cy="46" r="3.3"/>
		</g>
		<path class="st4" d="M63.6,72.9H36c-3.6,0-6.5-2.9-6.5-6.5V54.3c0-3.6,2.9-6.5,6.5-6.5h2.4c0.3,0,0.5,0.2,0.5,0.5
			s-0.2,0.5-0.5,0.5H36c-3,0-5.5,2.5-5.5,5.5v12.1c0,3.1,2.5,5.5,5.5,5.5h27.7c3.1,0,5.5-2.5,5.5-5.5V54.3c0-3-2.5-5.5-5.5-5.5H57
			c-0.3,0-0.5-0.2-0.5-0.5s0.2-0.5,0.5-0.5h6.7c3.6,0,6.5,2.9,6.5,6.5v12.1C70.1,70,67.2,72.9,63.6,72.9z"/>
		<g>
			<g>
				<g>
					<defs>
						<path id="SVGID_5_" d="M91.3,77H62.2c-2.5,0-4.5-2-4.5-4.6V57.6c0-2.5,2-4.5,4.5-4.5h29.1c2.5,0,4.6,2,4.6,4.5v14.9
							C95.8,74.9,93.8,77,91.3,77z"/>
					</defs>
					<clipPath id="SVGID_6_">
						<use xlink:href="#SVGID_5_"  style="overflow:visible;"/>
					</clipPath>
					<path class="st7" d="M58.7,75.6c0.5-0.9,3.6-1.1,7.9-1.2s16.7,3.4,20.7-0.4s3.5-9.2,4.9-12.7c2.5-6.1,6.7-8.1,10.4-5.7
						S96.7,77,96.7,77l-37.4,1.8L58.7,75.6z"/>
				</g>
			</g>
		</g>
		<path class="st4" d="M91.2,77.5h-29c-1.3,0-2.5-0.5-3.4-1.3c-0.2-0.2-0.2-0.5,0-0.7s0.5-0.2,0.7,0c0.8,0.7,1.7,1,2.7,1h29
			c2.2,0,4.1-1.8,4.1-4.1V57.6c0-2.2-1.8-4.1-4.1-4.1H74.4c-0.3,0-0.5-0.2-0.5-0.5s0.2-0.5,0.5-0.5h16.9c2.8,0,5.1,2.3,5.1,5.1v14.8
			C96.3,75.2,94,77.5,91.2,77.5z"/>
		<g>
			<g>
				<path class="st4" d="M95.8,44.6c0,3.9-4,10.2-5.5,12.5c-0.3,0.4-0.9,0.4-1.1,0c-1.5-2.3-5.5-8.6-5.5-12.5c0-4.8,2.7-7.5,6.1-7.5
					S95.8,39.8,95.8,44.6z"/>
				<path class="st4" d="M89.8,57.9c-0.4,0-0.8-0.2-1-0.5c-1.7-2.5-5.6-8.8-5.6-12.7c0-4.7,2.7-8,6.6-8s6.6,3.3,6.6,8
					c0,4-3.9,10.2-5.6,12.7C90.5,57.7,90.2,57.9,89.8,57.9z M89.8,37.6c-3.3,0-5.6,2.8-5.6,7c0,3.8,4.1,10.3,5.4,12.2
					c0.1,0.1,0.2,0.1,0.3,0c1.3-1.9,5.4-8.4,5.4-12.2C95.3,40.4,93.1,37.6,89.8,37.6z"/>
			</g>
			<circle class="st1" cx="89.8" cy="43.4" r="3.3"/>
		</g>
		<g>
			<g>
				<path class="st4" d="M85.5,62.4c0,3.9-4,10.2-5.5,12.4c-0.3,0.4-0.9,0.4-1.1,0c-1.5-2.3-5.5-8.6-5.5-12.5c0-4.8,2.7-7.5,6.1-7.5
					S85.5,57.6,85.5,62.4z"/>
				<path class="st4" d="M79.4,75.6c-0.4,0-0.8-0.2-1-0.5c-1.7-2.5-5.6-8.8-5.6-12.7c0-4.7,2.7-8,6.6-8s6.6,3.3,6.6,8
					c0,4-3.9,10.2-5.6,12.7C80.2,75.4,79.8,75.6,79.4,75.6z M79.4,55.3c-3.3,0-5.6,2.8-5.6,7c0,3.8,4.1,10.3,5.4,12.2
					c0.1,0.1,0.2,0.1,0.3,0c1.3-1.9,5.4-8.4,5.4-12.2C85,58.2,82.8,55.3,79.4,55.3z"/>
			</g>
			<circle class="st1" cx="79.4" cy="61.2" r="3.3"/>
		</g>
		<path class="st4" d="M85.6,86.6H74c-0.3,0-0.5-0.2-0.5-0.5s0.2-0.5,0.5-0.5h11.6c0.3,0,0.5,0.2,0.5,0.5S85.9,86.6,85.6,86.6z"/>
		<path class="st4" d="M70,86.6H8.8c-0.3,0-0.5-0.2-0.5-0.5s0.2-0.5,0.5-0.5H70c0.3,0,0.5,0.2,0.5,0.5S70.3,86.6,70,86.6z"/>
		<path class="st3" d="M38.1,31.5h-6.4c-0.6,0-1-0.5-1-1v-1c0-0.6,0.5-1,1-1h6.4c0.6,0,1,0.5,1,1v1C39.1,31.1,38.6,31.5,38.1,31.5z"
			/>
	</g>
</g>
</svg>
