
<svg version="1.1" id="Layer_1" xmlns="http://www.w3.org/2000/svg" xmlns:xlink="http://www.w3.org/1999/xlink" x="0px" y="0px"
	 viewBox="0 0 125 100" style="enable-background:new 0 0 125 100;" xml:space="preserve">
<style type="text/css">
	.st0{fill:#F4E8DF;}
	.st1{fill:#FFFFFF;}
	.st2{fill:#EF4D33;}
	.st3{fill:#F59375;}
	.st4{fill:#F4D3BD;}
	.st5{clip-path:url(#SVGID_2_);}
</style>
<g id="Layer_4">
	<g>
		<path class="st0" d="M103.6,45.9C98.3,24.3,60.3-7.4,24.2,11C6.9,19.8-2,54.1,1.3,76.1c4.1,27.3,54.6,26.7,78.9,20.1
			C100.5,90.6,110.1,72.9,103.6,45.9z"/>
		<path class="st1" d="M2.9,88.7c-1.6,0-2.9-1.3-2.9-2.8C0,84.3,1.3,83,2.9,83h6.3c-1.1-1.7-1.8-3.8-1.8-6v-2.5h7.1V34
			c0-4.5,3.4-8.2,7.6-8.2h9.8v-6.5c0-4.2,3.4-7.6,7.6-7.6h18.2c4.2,0,7.6,3.4,7.6,7.6v6.5H75c4.2,0,7.6,3.7,7.6,8.2v30h5
			c2.1,0,3.9,1.2,4.8,3c4.1,1.1,7.1,4.8,7.1,9.2c0,2.7-1.2,5.2-3,6.9H98c1.6,0,2.9,1.3,2.9,2.9s-1.3,2.9-2.9,2.9
			C98,88.7,2.9,88.7,2.9,88.7z M92.9,78.4c0.5-0.6,0.8-1.4,0.8-2.3s-0.3-1.7-0.8-2.3V78.4z"/>
		<path class="st1" d="M98,85.6H87.9c1.3-0.1,2.4-1.2,2.5-2.6c3.6-0.2,6.5-3.2,6.5-6.9c0-3.7-2.9-6.7-6.5-6.9
			c-0.1-1.5-1.3-2.7-2.8-2.7h-7.5V34c0-3.1-2.3-5.6-5.1-5.6H62.8v-9c0-2.8-2.3-5.1-5.1-5.1H39.5c-2.8,0-5.1,2.3-5.1,5.1v9H22.1
			c-2.8,0-5.1,2.5-5.1,5.6v43H9.9c0,4.6,3.6,8.3,8.1,8.6H2.9c-0.2,0-0.3,0.1-0.3,0.3s0.1,0.3,0.3,0.3H98c0.2,0,0.3-0.1,0.3-0.3
			S98.2,85.6,98,85.6z M90.4,69.8c3.3,0.2,5.9,2.9,5.9,6.3s-2.6,6.1-5.9,6.3V69.8z M78.5,85.5c0.1,0,0.2,0,0.3,0.1h-0.7
			C78.2,85.6,78.4,85.5,78.5,85.5z"/>
		<path class="st2" d="M98,86.4H2.9c-0.3,0-0.5-0.2-0.5-0.5s0.2-0.5,0.5-0.5H98c0.3,0,0.5,0.2,0.5,0.5S98.3,86.4,98,86.4z"/>
		<path class="st2" d="M80.1,77.5c-0.3,0-0.5-0.2-0.5-0.5V33.4c0-2.5-2.1-4.6-4.6-4.6h-9.8c-0.3,0-0.5-0.2-0.5-0.5s0.2-0.5,0.5-0.5
			H75c3.1,0,5.6,2.5,5.6,5.6V77C80.6,77.3,80.4,77.5,80.1,77.5z"/>
		<path class="st2" d="M17,73.8c-0.3,0-0.5-0.2-0.5-0.5V33.4c0-3.1,2.5-5.6,5.6-5.6h9.3c0.3,0,0.5,0.2,0.5,0.5s-0.2,0.5-0.5,0.5
			h-9.3c-2.5,0-4.6,2.1-4.6,4.6v39.9C17.5,73.6,17.3,73.8,17,73.8z"/>
		<g>
			<path class="st2" d="M65.7,61H27.4c-0.3,0-0.5-0.2-0.5-0.5s0.2-0.5,0.5-0.5h38.3c0.3,0,0.5,0.2,0.5,0.5S66,61,65.7,61z"/>
			<path class="st3" d="M52.2,67H27.4c-0.3,0-0.5-0.2-0.5-0.5s0.2-0.5,0.5-0.5h24.8c0.3,0,0.5,0.2,0.5,0.5S52.5,67,52.2,67z"/>
			<g>
				<path class="st4" d="M67.4,56H42.2c-1.3,0-2.3-1-2.3-2.3v-1.5c0-1.3,1-2.3,2.3-2.3h25.2c1.3,0,2.3,1,2.3,2.3v1.5
					C69.7,55,68.7,56,67.4,56z"/>
				<path class="st3" d="M46.1,56H29.7c-1.3,0-2.3-1-2.3-2.3v-1.5c0-1.3,1-2.3,2.3-2.3h16.4c1.3,0,2.3,1,2.3,2.3v1.5
					C48.4,55,47.4,56,46.1,56z"/>
			</g>
		</g>
		<g>
			<g>
				<g>
					<defs>
						<rect id="SVGID_1_" x="80.1" y="63.8" width="19.3" height="21.8"/>
					</defs>
					<clipPath id="SVGID_2_">
						<use xlink:href="#SVGID_1_"  style="overflow:visible;"/>
					</clipPath>
					<g class="st5">
						<path class="st2" d="M86,85.6h-5.3c-2.4,0-4.4-1.9-4.4-4.4V70.9c0-2.4,1.9-4.4,4.4-4.4H86c2.4,0,4.4,1.9,4.4,4.4v10.3
							C90.4,83.6,88.4,85.6,86,85.6z"/>
						<path class="st2" d="M90,83.2c-3.9,0-7.1-3.2-7.1-7.1S86.1,69,90,69s7.1,3.2,7.1,7.1S93.9,83.2,90,83.2z M90,70
							c-3.4,0-6.1,2.7-6.1,6.1s2.7,6.1,6.1,6.1s6.1-2.7,6.1-6.1S93.3,70,90,70z"/>
					</g>
				</g>
			</g>
		</g>
		<g>
			<path class="st1" d="M33.9,77h-24c0,4.7,3.8,8.6,8.6,8.6h59c4.7,0,8.6-3.8,8.6-8.6H40.6"/>
			<path class="st2" d="M77.4,86.1h-59c-5,0-9.1-4.1-9.1-9.1v-0.5h24.5c0.3,0,0.5,0.2,0.5,0.5s-0.2,0.5-0.5,0.5H10.4
				c0.3,4.2,3.8,7.6,8.1,7.6h59c4.3,0,7.8-3.4,8.1-7.6h-45c-0.3,0-0.5-0.2-0.5-0.5s0.2-0.5,0.5-0.5h45.9V77
				C86.5,82,82.5,86.1,77.4,86.1z"/>
		</g>
		<path class="st4" d="M10.7,81.8c1.5,2.3,4.2,3.8,7.2,3.8h59c3,0,5.6-1.5,7.2-3.8H10.7z"/>
		<path class="st2" d="M77.4,86.1h-59c-5,0-9.1-4.1-9.1-9.1v-0.5h24.5c0.3,0,0.5,0.2,0.5,0.5s-0.2,0.5-0.5,0.5H10.4
			c0.3,4.2,3.8,7.6,8.1,7.6h59c4.3,0,7.8-3.4,8.1-7.6h-45c-0.3,0-0.5-0.2-0.5-0.5s0.2-0.5,0.5-0.5h45.9V77
			C86.5,82,82.5,86.1,77.4,86.1z"/>
		<path class="st3" d="M54.8,43.1H42.4c-4.7,0-8.5-3.8-8.5-8.5V22.2c0-4.7,3.8-8.5,8.5-8.5h12.4c4.7,0,8.5,3.8,8.5,8.5v12.4
			C63.3,39.3,59.4,43.1,54.8,43.1z M42.4,14.7c-4.1,0-7.5,3.4-7.5,7.5v12.4c0,4.1,3.4,7.5,7.5,7.5h12.4c4.1,0,7.5-3.4,7.5-7.5V22.2
			c0-4.1-3.4-7.5-7.5-7.5C54.8,14.7,42.4,14.7,42.4,14.7z"/>
		<path class="st2" d="M46.7,37.8c-0.1,0-0.1,0-0.2,0c-1-0.1-2-0.5-2.6-1.4l-4.3-5.5c-0.6-0.8-0.5-1.9,0.3-2.5s1.9-0.5,2.5,0.3
			l4.3,5.5L55,20.6c0.5-0.8,1.6-1.1,2.4-0.6c0.8,0.5,1.1,1.6,0.6,2.4l-8.7,14.2C48.5,37.4,47.6,37.8,46.7,37.8z"/>
	</g>
</g>
</svg>
