
<svg version="1.1" id="Layer_1" xmlns="http://www.w3.org/2000/svg" xmlns:xlink="http://www.w3.org/1999/xlink" x="0px" y="0px"
	 viewBox="0 0 125 100" style="enable-background:new 0 0 125 100;" xml:space="preserve">
<style type="text/css">
	.st0{fill:#F4E8DF;}
	.st1{fill:#FFFFFF;}
	.st2{fill:none;}
	.st3{fill:#EF4D33;}
	.st4{fill:#F59375;}
	.st5{fill:#F4D3BD;}
</style>
<g id="Layer_3">
	<g>
		<path class="st0" d="M1.6,43.3C5.2,28,41.8-11.4,76.8,6c18.2,9.1,22.2,42.8,18.1,65.7C91.2,92.6,55.3,105,29.9,98.1
			C8.5,92.3-4.8,71.6,1.6,43.3z"/>
		<path class="st1" d="M85.2,86.4c-0.3,0-0.5,0-0.8-0.1c-0.3,0.1-0.5,0.1-0.8,0.1h-69c-0.2,0-0.4,0-0.6-0.1c-0.2,0-0.4,0.1-0.6,0.1
			H9.5c-1.9,0-3.4-1.5-3.4-3.4s1.5-3.4,3.4-3.4h4.1c0.2,0,0.4,0,0.6,0.1c0.2,0,0.3,0,0.5,0c0.2-0.7,0.5-1.3,0.9-1.9
			c0.6-0.9,1.4-1.5,2.3-1.9c-0.2-0.6-0.3-1.4-0.2-2.3c0.3-1.9,1.4-3.2,2.5-4V50.1c-1.2-0.3-2.3-0.9-3.1-1.8
			c-1.1-1.3-1.7-3.1-1.5-4.9l1.1-8.8c0.4-3.3,3.3-5.9,6.5-5.9h1c0-3.5,2.9-6.4,6.4-6.4h37.4c3.5,0,6.3,2.9,6.4,6.4h1.5
			c3.3,0,6.1,2.6,6.5,5.9l1.1,8.8c0.2,1.8-0.3,3.6-1.5,4.9c-0.7,0.8-1.6,1.4-2.6,1.7v14.8c1.3,1.2,3.1,3.3,3.2,6
			c0.1,1.1,0,2.1-0.2,3c1.5,1.3,2.4,3,2.6,5l0.1,0.7c0.1,0,0.1,0,0.2,0h4.1c1.9,0,3.4,1.5,3.4,3.4s-1.5,3.4-3.4,3.4
			C89.3,86.5,85.2,86.5,85.2,86.4z"/>
		<path class="st1" d="M85.2,85.6c-0.3,0-0.5,0-0.8-0.1c-0.3,0.1-0.5,0.1-0.8,0.1h-69c-0.2,0-0.4,0-0.6-0.1c-0.2,0-0.4,0.1-0.6,0.1
			H9.5C8.1,85.6,7,84.4,7,83s1.1-2.5,2.5-2.5h4.1c0.2,0,0.4,0,0.6,0.1c0.2,0,0.4-0.1,0.6-0.1h0.6c0.1-0.9,0.4-1.6,0.9-2.3
			c0.7-1,1.8-1.6,2.6-2c-0.2-0.7-0.5-1.6-0.3-2.6c0.2-1.8,1.4-3,2.5-3.7V49.4c-1.3-0.1-2.4-0.7-3.3-1.7c-1-1.1-1.5-2.7-1.3-4.3
			l1.1-8.8c0.4-2.9,2.8-5.1,5.7-5.1H25v-0.8c0-3,2.5-5.5,5.5-5.5h37.4c3,0,5.5,2.5,5.5,5.5v0.8h2.4c2.8,0,5.3,2.2,5.7,5.1l1.1,8.8
			c0.2,1.6-0.3,3.1-1.3,4.3c-0.8,0.8-1.7,1.4-2.8,1.6v15.9c1.2,1.1,3.1,3.1,3.2,5.7c0.1,1.4-0.1,2.5-0.3,3.3
			c1.1,0.8,2.5,2.2,2.7,4.8l0.1,1.6c0.1,0,0.1,0,0.2,0.1c0.3-0.1,0.5-0.1,0.8-0.1h4.1c1.4,0,2.5,1.1,2.5,2.5s-1.1,2.5-2.5,2.5
			L85.2,85.6L85.2,85.6z"/>
		<path class="st1" d="M88.6,81.9h-4c-0.3,0-0.6,0.1-0.8,0.3c-0.2-0.2-0.5-0.3-0.8-0.3h-0.8c-0.1-0.8-0.2-1.9-0.3-2.8
			c-0.2-2.6-2-3.7-2.8-4.2c0,0-0.1-0.1-0.1-0.1c0,0,0-0.1,0-0.1c0.2-0.6,0.6-1.8,0.5-3.8c-0.1-2.5-2.3-4.4-3.2-5.1V48h0.5
			c1.1,0,2-0.4,2.7-1.2c0.7-0.8,1-2,0.9-3.1l-1.1-8.8c-0.3-2.2-2.1-3.8-4.2-3.8h-3.8v-2.3c0-2.3-1.8-4.1-4-4.1H30.3
			c-2.2,0-4,1.8-4,4.1V31H23c-2.1,0-3.9,1.7-4.2,3.8l-1.1,8.8c-0.1,1.2,0.2,2.3,0.9,3.1c0.7,0.8,1.6,1.2,2.7,1.2h0.9v22.8
			c-0.8,0.4-2.3,1.4-2.5,3.1c-0.1,0.9,0.2,1.7,0.4,2.3c0.1,0.3,0.2,0.6,0.2,0.8c-0.1,0.1-0.6,0.4-0.9,0.5c-0.7,0.4-1.7,0.9-2.2,1.7
			c-0.6,0.9-0.7,2-0.6,2.9h-2.1c-0.2,0-0.4,0.1-0.6,0.2C13.9,82,13.7,82,13.5,82h-4c-0.6,0-1.1,0.5-1.1,1.1s0.5,1.1,1.1,1.1h4
			c0.2,0,0.4-0.1,0.6-0.2c0.2,0.1,0.4,0.2,0.6,0.2H83c0.3,0,0.6-0.1,0.8-0.3c0.2,0.2,0.5,0.3,0.8,0.3h4c0.6,0,1.1-0.5,1.1-1.1
			C89.7,82.4,89.2,81.9,88.6,81.9z"/>
		<g>
			<g>
				<line class="st2" x1="22.8" y1="49.9" x2="22.8" y2="82.4"/>
				<path class="st3" d="M22.8,82.9c-0.3,0-0.5-0.2-0.5-0.5V49.9c0-0.3,0.2-0.5,0.5-0.5s0.5,0.2,0.5,0.5v32.5
					C23.3,82.7,23.1,82.9,22.8,82.9z"/>
			</g>
			<path class="st3" d="M76.6,82.9c-0.3,0-0.5-0.2-0.5-0.5V49.9c0-0.3,0.2-0.5,0.5-0.5s0.5,0.2,0.5,0.5v32.5
				C77.1,82.7,76.8,82.9,76.6,82.9z"/>
			<path class="st4" d="M64.8,66.8H51.2c-1.9,0-3.5-1.6-3.5-3.5v-4.4c0-1.9,1.6-3.5,3.5-3.5h13.6c1.9,0,3.5,1.6,3.5,3.5v4.4
				C68.3,65.3,66.7,66.8,64.8,66.8z"/>
			<path class="st5" d="M45.4,82.4c0.5-0.8,6.8-6.1,11.2-6.7s7.8,1.1,12.3-1.4s7.3-5.5,7.3-5.5v13.6C76.2,82.5,45.4,82.5,45.4,82.4z
				"/>
			<path class="st5" d="M36.3,63.7h-2c-0.7,0-1.3-0.6-1.3-1.3l0,0c0-0.7,0.6-1.3,1.3-1.3h2c0.7,0,1.3,0.6,1.3,1.3l0,0
				C37.6,63.1,37,63.7,36.3,63.7z"/>
			<path class="st3" d="M40.7,81c-0.3,0-0.5-0.2-0.5-0.5V60.2c0-1.6-1.3-2.8-2.8-2.8h-4.1c-1.6,0-2.9,1.3-2.9,2.8v20.2
				c0,0.3-0.2,0.5-0.5,0.5s-0.5-0.2-0.5-0.5V60.2c0-2.1,1.7-3.8,3.9-3.8h4.1c2.1,0,3.8,1.7,3.8,3.8v20.3C41.2,80.8,41,81,40.7,81z"
				/>
			<path class="st3" d="M77.8,47.6H21.1c-1,0-1.9-0.4-2.5-1.1c-0.7-0.8-1-1.8-0.9-2.9l1.1-8.8c0.3-2,2-3.6,4-3.6h53.2
				c2,0,3.8,1.6,4,3.6l1.1,8.8c0.1,1.1-0.2,2.2-0.9,2.9C79.7,47.2,78.8,47.6,77.8,47.6z M22.9,32.1c-1.5,0-2.9,1.2-3,2.8l-1.1,8.8
				c-0.1,0.8,0.1,1.6,0.6,2.2c0.5,0.5,1.1,0.8,1.8,0.8h56.6c0.7,0,1.3-0.3,1.8-0.8c0.5-0.6,0.7-1.3,0.6-2.2l-1.1-8.8
				c-0.2-1.5-1.6-2.8-3-2.8H22.9z M18.2,43.6L18.2,43.6L18.2,43.6z"/>
			<path class="st5" d="M23.9,45c0,0-0.1,0-0.1,0c-0.3-0.1-0.4-0.3-0.4-0.6l2.4-9.8c0.1-0.3,0.3-0.4,0.6-0.4
				c0.3,0.1,0.4,0.3,0.4,0.6l-2.4,9.8C24.4,44.8,24.2,45,23.9,45z"/>
			<path class="st5" d="M76.8,45c-0.2,0-0.4-0.2-0.5-0.4l-2.4-9.8c-0.1-0.3,0.1-0.5,0.4-0.6c0.3-0.1,0.5,0.1,0.6,0.4l2.4,9.8
				c0.1,0.3-0.1,0.5-0.4,0.6C76.9,45,76.9,45,76.8,45z"/>
			<path class="st5" d="M33,45C32.9,45,32.9,45,33,45c-0.4,0-0.5-0.3-0.5-0.6l1.5-9.8c0-0.3,0.3-0.5,0.6-0.4s0.5,0.3,0.4,0.6
				l-1.5,9.8C33.4,44.8,33.2,45,33,45z"/>
			<path class="st5" d="M68.1,45c-0.2,0-0.5-0.2-0.5-0.4l-1.5-9.8c0-0.3,0.2-0.5,0.4-0.6s0.5,0.2,0.6,0.4l1.5,9.8
				C68.6,44.7,68.4,45,68.1,45C68.1,45,68.1,45,68.1,45z"/>
			<path class="st5" d="M42,45c-0.3,0-0.5-0.2-0.5-0.5v-9.8c0-0.3,0.2-0.5,0.5-0.5s0.5,0.2,0.5,0.5v9.8C42.5,44.8,42.3,45,42,45z"/>
			<path class="st5" d="M50.8,45c-0.3,0-0.5-0.2-0.5-0.5v-9.8c0-0.3,0.2-0.5,0.5-0.5s0.5,0.2,0.5,0.5v9.8C51.3,44.8,51.1,45,50.8,45
				z"/>
			<path class="st5" d="M59.1,45c-0.3,0-0.5-0.2-0.5-0.5v-9.8c0-0.3,0.2-0.5,0.5-0.5s0.5,0.2,0.5,0.5v9.8C59.6,44.8,59.4,45,59.1,45
				z"/>
			<path class="st3" d="M27,30.9c-0.3,0-0.5-0.2-0.5-0.5v-1.8c0-2.1,1.7-3.9,3.9-3.9h37.8c2.1,0,3.8,1.7,3.8,3.9v1.6
				c0,0.3-0.2,0.5-0.5,0.5S71,30.4,71,30.2v-1.6c0-1.6-1.3-2.9-2.8-2.9H30.3c-1.6,0-2.9,1.3-2.9,2.9v1.8
				C27.5,30.6,27.2,30.9,27,30.9z"/>
			<path class="st3" d="M13.2,83.4H9.1c-0.3,0-0.5-0.2-0.5-0.5s0.2-0.5,0.5-0.5h4.1c0.3,0,0.5,0.2,0.5,0.5S13.5,83.4,13.2,83.4z"/>
			<path class="st3" d="M89.7,83.4h-4.1c-0.3,0-0.5-0.2-0.5-0.5s0.2-0.5,0.5-0.5h4.1c0.3,0,0.5,0.2,0.5,0.5S90,83.4,89.7,83.4z"/>
			<path class="st3" d="M84,83.4H14.4c-0.3,0-0.5-0.2-0.5-0.5s0.2-0.5,0.5-0.5H84c0.3,0,0.5,0.2,0.5,0.5S84.3,83.4,84,83.4z"/>
			<path class="st3" d="M17.3,82.9c0,0-0.6-2.2,0.3-3.5c0.9-1.3,3.3-1.7,3.3-2.5s-0.8-1.8-0.6-3.1c0.2-1.8,2.5-2.7,2.5-2.7v11.8
				H17.3z"/>
			<path class="st3" d="M76.6,66.2c0,0,3.1,2.1,3.3,4.7c0.1,2.7-0.7,3.6-0.6,4.1s2.8,1.1,3.1,4.1c0.2,1.6,0.3,3.9,0.3,3.9h-6.4
				L76.6,66.2z"/>
			<path class="st3" d="M71.5,67.3h-27c-0.3,0-0.5-0.2-0.5-0.5s0.2-0.5,0.5-0.5h27c0.3,0,0.5,0.2,0.5,0.5S71.7,67.3,71.5,67.3z"/>
			<path class="st3" d="M60.8,71.5H44.5c-0.3,0-0.5-0.2-0.5-0.5s0.2-0.5,0.5-0.5h16.3c0.3,0,0.5,0.2,0.5,0.5S61,71.5,60.8,71.5z"/>
		</g>
	</g>
</g>
</svg>
